<svg xmlns="http://www.w3.org/2000/svg" viewBox="0 0 1000 394" preserveAspectRatio="none">
  <defs>
    <linearGradient id="ocean" x1="0" x2="1" y1="0" y2="1">
      <stop offset="0" stop-color="#fbf4e9"/>
      <stop offset="1" stop-color="#e4cfad"/>
    </linearGradient>
    <linearGradient id="land" x1="0" x2="1" y1="0" y2="1">
      <stop offset="0" stop-color="#caa574"/>
      <stop offset="1" stop-color="#8f704c"/>
    </linearGradient>
    <filter id="softShadow" x="-8%" y="-8%" width="116%" height="116%">
      <feDropShadow dx="0" dy="5" stdDeviation="5" flood-color="#6f4d2e" flood-opacity="0.14"/>
    </filter>
  </defs>
  <rect width="1000" height="394" fill="url(#ocean)"/>
  <g fill="none" stroke="#8f704c" stroke-opacity="0.08" stroke-width="1">
    <path d="M0 66.6H1000" />
    <path d="M0 149.8H1000" />
    <path d="M0 233.1H1000" />
    <path d="M0 316.3H1000" />
    <path d="M166.7 0V394" />
    <path d="M333.3 0V394" />
    <path d="M500.0 0V394" />
    <path d="M666.7 0V394" />
    <path d="M833.3 0V394" />
  </g>
  <path d="M311.8 382.5 L315.4 384.1 L319.3 384.8 L318.1 386.2 L315.4 386.4 L314.0 385.4 L313.1 386.5 L310.7 387.4 L307.7 387.1 L305.7 386.2 L302.8 385.8 L299.3 384.3 L296.4 382.8 L292.6 379.7 L294.9 380.3 L298.8 382.1 L302.5 383.1 L303.9 381.8 L304.8 379.9 L307.4 378.8 L309.3 379.1 L309.3 379.1 L310.4 380.4 L311.8 382.5 Z M337.4 374.9 L339.6 376.1 L338.8 377.1 L335.0 377.9 L333.8 376.9 L331.4 378.2 L330.0 376.9 L333.3 375.3 L335.7 376.0 L337.4 374.9 Z M695.2 371.0 L691.0 371.2 L690.9 369.7 L691.3 368.6 L691.5 368.0 L693.3 368.9 L695.9 369.2 L696.0 369.7 L695.2 371.0 Z M903.9 346.3 L906.6 347.2 L908.1 346.8 L910.2 346.3 L911.9 346.5 L912.1 349.8 L911.2 350.7 L910.9 353.0 L909.9 352.2 L908.0 354.1 L907.4 354.0 L905.7 353.9 L904.0 351.5 L903.6 349.7 L902.0 347.3 L902.1 346.0 L903.9 346.3 Z M980.6 346.6 L981.2 347.8 L983.2 346.6 L984.0 347.8 L984.0 349.0 L983.0 350.3 L981.2 352.3 L979.8 353.4 L980.8 354.7 L978.6 354.8 L976.3 355.8 L975.5 357.6 L973.9 360.5 L971.8 361.7 L970.4 362.5 L967.8 362.4 L966.0 361.5 L963.0 361.3 L962.5 360.3 L964.0 358.2 L967.5 355.5 L969.3 355.0 L971.3 353.9 L973.7 352.5 L975.3 351.0 L976.6 349.0 L977.6 348.3 L978.0 346.7 L980.0 345.4 L980.6 346.6 Z M985.0 333.4 L987.0 336.3 L987.1 334.4 L988.4 335.2 L988.8 337.3 L991.0 338.2 L992.9 338.4 L994.5 337.3 L995.9 337.7 L995.2 340.1 L994.4 341.7 L992.2 341.7 L991.5 342.5 L991.8 343.7 L991.3 344.2 L990.3 345.7 L988.9 347.6 L986.8 348.7 L986.3 348.0 L985.1 347.6 L986.7 345.3 L985.8 343.8 L982.8 342.7 L982.9 341.7 L984.9 340.7 L985.4 338.6 L985.3 336.8 L984.1 334.9 L984.2 334.4 L982.9 333.3 L980.7 330.8 L979.5 328.9 L980.6 328.7 L982.1 330.2 L984.2 330.9 L985.0 333.4 Z M964.2 294.6 L963.2 295.2 L961.6 294.5 L959.7 293.2 L957.9 291.8 L956.0 289.8 L955.6 288.9 L956.8 288.9 L958.4 289.8 L959.6 290.8 L960.5 291.6 L962.8 293.3 L964.2 294.6 Z M995.5 281.2 L996.4 282.0 L996.0 283.4 L994.3 283.8 L992.7 283.5 L992.5 282.3 L993.5 281.3 L994.8 281.6 L995.5 281.2 Z M998.2 279.7 L996.5 280.3 L996.1 279.2 L997.5 278.7 L998.4 278.5 L1000.0 277.7 L1000.0 279.0 L998.2 279.7 Z M0.2 278.9 L0.0 279.0 L0.0 277.7 L0.6 277.5 L0.2 278.9 Z M966.2 278.8 L965.3 279.1 L964.4 277.9 L964.5 277.2 L966.2 278.8 Z M964.2 274.5 L964.6 276.7 L963.9 276.4 L963.3 276.5 L962.9 275.8 L962.9 273.7 L964.2 274.5 Z M639.0 270.7 L639.5 274.0 L640.2 275.3 L639.9 276.6 L639.4 277.5 L638.5 275.8 L638.0 276.7 L638.5 278.7 L638.3 279.9 L637.5 280.5 L637.3 282.9 L636.2 286.1 L634.9 289.9 L633.1 295.2 L632.1 299.1 L630.8 302.3 L628.6 302.9 L626.1 304.1 L624.5 303.4 L622.3 302.4 L621.6 300.9 L621.4 298.5 L620.4 296.3 L620.2 294.3 L620.6 292.3 L621.9 291.8 L621.9 290.9 L623.3 288.8 L623.5 287.0 L622.9 285.7 L622.3 283.9 L622.1 281.4 L623.1 279.8 L623.5 278.1 L624.8 278.0 L626.4 277.4 L627.4 276.9 L628.6 276.9 L630.2 275.3 L632.5 273.6 L633.3 272.2 L633.0 271.0 L634.1 271.3 L635.7 269.4 L635.7 267.7 L636.7 266.5 L637.6 267.7 L638.4 268.9 L639.0 270.7 Z M898.8 271.3 L899.8 273.4 L901.6 272.4 L902.5 273.6 L903.8 274.6 L903.5 275.9 L904.1 278.3 L904.5 279.6 L905.2 280.0 L906.0 282.4 L905.7 283.8 L906.6 285.7 L909.6 287.1 L911.6 288.4 L913.5 289.6 L913.1 290.3 L914.7 292.1 L915.8 295.1 L916.9 294.5 L918.0 295.7 L918.7 295.2 L919.2 298.2 L921.1 299.9 L922.4 300.9 L924.6 303.2 L925.4 305.4 L925.4 307.0 L925.3 308.7 L926.6 311.1 L926.4 313.5 L925.9 314.8 L925.2 317.3 L925.2 318.9 L924.7 320.9 L923.5 323.4 L921.4 324.7 L920.4 326.9 L919.5 328.3 L918.7 330.7 L917.6 332.0 L916.9 334.1 L916.5 336.0 L916.7 336.9 L915.1 337.9 L912.0 338.0 L909.4 339.1 L908.1 340.2 L906.4 341.4 L904.1 340.2 L902.4 339.7 L902.9 338.2 L901.3 338.7 L898.9 340.8 L896.5 340.0 L894.9 339.6 L893.4 339.4 L890.7 338.6 L888.9 336.9 L888.4 334.7 L887.7 333.3 L886.3 332.2 L883.7 331.9 L884.6 330.5 L883.9 328.5 L882.6 330.4 L880.1 330.9 L881.5 329.4 L882.0 327.8 L883.0 326.4 L882.8 324.4 L880.5 326.7 L878.8 327.7 L877.7 329.9 L875.6 328.7 L875.7 327.3 L873.9 325.3 L872.5 324.2 L873.0 323.6 L869.4 321.9 L867.5 321.8 L864.8 320.5 L859.8 320.7 L856.2 321.7 L853.1 322.6 L850.4 322.5 L847.5 323.9 L845.1 324.5 L844.5 326.0 L843.5 327.1 L841.1 327.2 L839.4 327.4 L836.9 326.9 L834.9 327.2 L833.0 327.3 L831.4 328.8 L830.6 328.7 L829.2 329.5 L827.8 330.4 L825.8 330.3 L824.0 330.3 L821.0 328.5 L819.5 328.0 L819.6 326.4 L821.0 326.0 L821.4 325.4 L821.3 324.4 L821.7 322.4 L821.4 320.8 L819.9 318.0 L819.4 316.4 L819.6 314.8 L818.4 313.0 L818.4 312.2 L817.1 311.1 L816.8 308.9 L815.2 306.7 L814.8 305.5 L816.1 306.7 L815.1 304.2 L816.5 305.0 L817.3 306.0 L817.3 304.6 L815.9 302.4 L815.6 301.6 L815.0 300.7 L815.3 299.1 L815.9 298.4 L816.2 297.1 L815.9 295.4 L817.1 293.4 L817.3 295.5 L818.5 293.6 L820.7 292.7 L822.1 291.5 L824.2 290.5 L825.5 290.3 L826.2 290.6 L828.4 289.6 L830.1 289.3 L830.5 288.7 L831.3 288.4 L832.8 288.5 L835.7 287.7 L837.2 286.5 L837.9 285.0 L839.6 283.6 L839.7 282.5 L839.8 280.9 L841.7 278.6 L842.9 281.0 L844.1 280.4 L843.1 279.1 L843.9 277.8 L845.2 278.4 L845.5 276.3 L847.0 274.9 L847.7 273.8 L849.1 273.3 L849.1 272.6 L850.3 272.9 L850.4 272.2 L851.6 271.8 L853.0 271.4 L855.0 272.7 L856.6 274.3 L858.3 274.3 L860.1 274.6 L859.5 273.1 L860.8 270.9 L862.1 270.1 L861.6 269.4 L862.8 267.9 L864.5 266.9 L865.9 267.2 L868.3 266.7 L868.2 265.3 L866.2 264.4 L867.7 263.9 L869.5 264.6 L871.0 265.8 L873.3 266.5 L874.1 266.2 L875.8 267.1 L877.5 266.3 L878.5 266.5 L879.1 266.0 L880.4 267.3 L879.7 268.8 L878.6 269.9 L877.7 270.0 L878.0 271.2 L877.2 272.5 L876.2 273.9 L876.4 274.7 L878.6 276.2 L880.7 277.1 L882.2 278.1 L884.2 279.7 L885.0 279.7 L886.4 280.4 L886.8 281.3 L889.5 282.2 L891.3 281.3 L891.9 279.8 L892.4 278.5 L892.8 277.0 L893.6 274.8 L893.2 273.5 L893.4 272.7 L893.1 271.1 L893.5 269.0 L894.0 268.4 L893.6 267.5 L894.2 266.0 L894.8 264.5 L894.8 263.7 L895.9 262.7 L896.7 264.0 L896.9 265.8 L897.5 266.1 L897.7 267.3 L898.7 268.7 L898.9 270.3 L898.8 271.3 Z M950.3 262.2 L951.1 263.1 L949.2 263.1 L948.1 261.4 L949.8 262.1 L950.3 262.2 Z M835.3 261.5 L834.2 261.5 L830.5 259.6 L833.1 259.0 L834.5 259.9 L835.5 260.7 L835.3 261.5 Z M946.8 260.5 L945.7 260.5 L944.0 260.2 L943.4 259.8 L943.6 258.7 L945.5 259.2 L946.4 259.7 L946.8 260.5 Z M949.1 259.7 L948.7 260.2 L946.6 257.8 L946.1 256.2 L947.0 256.2 L948.0 258.4 L949.1 259.7 Z M845.7 261.2 L843.3 261.8 L842.9 261.5 L843.2 260.5 L844.4 258.8 L847.1 257.7 L847.5 257.1 L849.9 256.5 L851.8 256.4 L852.7 256.0 L853.7 256.4 L852.7 257.1 L849.8 258.3 L847.5 259.1 L845.7 261.2 Z M827.5 255.5 L828.5 256.3 L830.2 256.0 L830.9 257.2 L827.7 257.8 L825.8 258.2 L824.3 258.1 L825.2 256.5 L826.8 256.5 L827.5 255.5 Z M841.4 255.5 L841.0 257.1 L836.8 257.9 L833.1 257.5 L833.1 256.5 L835.3 255.9 L837.1 256.8 L838.9 256.5 L841.4 255.5 Z M944.1 256.2 L944.2 256.8 L942.0 255.6 L940.5 254.6 L939.5 253.7 L939.9 253.4 L941.2 254.0 L943.4 255.3 L944.1 256.2 Z M937.6 253.5 L937.1 253.6 L935.8 253.0 L934.7 251.8 L934.8 251.4 L936.5 252.6 L937.6 253.5 Z M801.7 251.9 L807.1 252.2 L807.7 251.0 L812.8 252.3 L813.8 254.1 L818.0 254.6 L821.4 256.3 L818.2 257.4 L815.2 256.2 L812.7 256.3 L809.8 256.1 L807.2 255.6 L804.0 254.5 L801.9 254.3 L800.8 254.6 L795.7 253.5 L795.2 252.3 L792.7 252.1 L794.6 249.4 L798.0 249.6 L800.2 250.7 L801.4 250.9 L801.7 251.9 Z M874.2 250.3 L872.8 252.2 L872.5 250.1 L873.0 249.1 L873.6 248.2 L874.2 249.0 L874.2 250.3 Z M933.0 252.0 L932.2 252.3 L931.0 251.2 L929.8 249.4 L929.2 247.3 L929.6 247.1 L929.9 247.9 L930.7 248.5 L932.1 250.3 L933.4 251.2 L933.0 252.0 Z M922.2 248.3 L920.7 248.5 L920.3 249.3 L918.8 250.0 L917.3 250.6 L915.9 250.6 L913.6 249.8 L912.0 249.0 L912.2 248.2 L914.7 248.6 L916.2 248.3 L916.7 247.0 L917.1 246.9 L917.3 248.4 L918.9 248.2 L919.7 247.3 L921.2 246.3 L920.9 244.6 L922.6 244.6 L923.2 245.0 L923.1 246.6 L922.2 248.3 Z M853.5 242.7 L852.4 243.6 L850.5 243.1 L850.0 241.9 L852.8 241.8 L853.5 242.7 Z M862.4 241.7 L863.4 243.8 L861.1 242.6 L858.8 242.4 L857.2 242.6 L855.3 242.5 L855.9 241.0 L859.4 240.8 L862.4 241.7 Z M925.4 245.6 L924.5 246.3 L924.0 244.7 L923.4 243.6 L922.1 242.7 L920.5 241.5 L918.5 240.7 L919.3 240.0 L920.8 240.8 L921.7 241.4 L922.9 242.1 L924.0 243.2 L925.1 244.1 L925.4 245.6 Z M872.6 236.3 L873.4 240.8 L876.3 242.4 L878.6 239.5 L881.8 237.8 L884.2 237.8 L886.6 238.8 L888.7 239.8 L891.7 240.3 L896.5 242.2 L901.6 243.8 L903.5 245.2 L905.1 246.6 L905.5 248.2 L910.1 250.0 L910.8 251.4 L908.3 251.7 L908.9 253.6 L911.3 255.4 L913.2 258.3 L914.7 258.2 L914.6 259.5 L916.8 259.9 L915.9 260.5 L918.9 261.6 L918.6 262.4 L916.7 262.6 L916.1 261.9 L913.7 261.6 L910.9 261.2 L908.7 259.4 L907.1 257.9 L905.7 255.5 L902.1 254.2 L899.7 255.0 L898.0 255.9 L898.4 258.0 L896.2 258.9 L894.6 258.5 L891.8 258.4 L889.3 256.1 L886.5 255.5 L885.8 256.3 L882.3 256.4 L883.4 254.2 L885.2 253.4 L884.5 250.4 L883.1 248.0 L877.7 245.7 L875.5 245.5 L871.3 242.9 L870.5 244.2 L869.4 244.5 L868.8 243.5 L868.8 242.3 L866.6 240.9 L869.6 239.9 L871.6 240.0 L871.4 239.2 L867.3 239.2 L866.2 237.6 L863.7 237.0 L862.6 235.7 L866.3 235.0 L867.7 234.1 L872.2 235.2 L872.6 236.3 Z M847.9 229.1 L845.7 231.9 L843.6 232.4 L840.9 231.9 L836.3 232.0 L833.8 232.4 L833.4 234.5 L835.9 237.0 L837.4 235.7 L842.6 234.8 L842.4 236.1 L841.2 235.7 L840.0 237.3 L837.5 238.4 L840.2 241.9 L839.6 242.9 L842.1 246.1 L842.1 247.9 L840.6 248.7 L839.5 247.7 L840.9 245.5 L838.2 246.5 L837.5 245.8 L837.8 244.7 L835.8 243.1 L836.0 240.4 L834.2 241.2 L834.4 244.4 L834.5 248.4 L832.8 248.8 L831.6 248.0 L832.4 245.4 L831.9 242.8 L830.8 242.7 L829.9 240.8 L831.1 239.0 L831.5 236.8 L832.8 232.6 L833.4 231.5 L835.8 229.4 L838.0 230.3 L841.5 230.6 L844.7 230.5 L847.4 228.5 L847.9 229.1 Z M857.5 229.9 L857.3 232.4 L855.9 232.1 L855.5 233.8 L856.6 235.2 L855.8 235.6 L854.7 233.8 L853.9 230.3 L854.4 228.0 L855.4 227.0 L855.6 228.6 L857.2 228.8 L857.5 229.9 Z M793.9 249.3 L790.9 249.4 L788.5 247.0 L785.0 244.8 L783.8 243.1 L781.7 240.8 L780.3 238.8 L778.2 234.9 L775.7 232.6 L774.9 230.2 L773.9 228.0 L771.4 226.3 L769.9 223.9 L767.8 222.3 L764.9 219.3 L764.7 217.9 L766.5 218.0 L770.8 218.5 L773.2 221.2 L775.4 223.1 L776.9 224.3 L779.6 227.2 L782.4 227.3 L784.7 229.2 L786.3 231.5 L788.4 232.8 L787.3 235.0 L788.9 236.0 L789.9 236.1 L790.4 238.0 L791.4 239.6 L793.4 239.8 L794.7 241.6 L794.0 245.0 L793.9 249.3 Z M827.4 228.0 L830.5 230.6 L827.3 230.9 L826.3 232.8 L826.4 235.3 L823.8 237.2 L823.7 240.0 L822.6 244.2 L822.2 243.2 L819.1 244.5 L818.0 242.8 L816.0 242.6 L814.6 241.7 L811.3 242.7 L810.3 241.4 L808.5 241.5 L806.2 241.2 L805.8 237.5 L804.4 236.7 L803.0 234.3 L802.6 231.9 L803.0 229.3 L804.6 227.5 L806.7 228.5 L808.8 227.9 L809.4 225.6 L810.5 225.1 L813.9 224.5 L815.9 222.3 L817.2 220.5 L818.3 219.5 L820.7 218.0 L822.8 216.0 L824.2 213.9 L825.4 213.8 L826.8 215.3 L826.9 216.5 L828.7 217.2 L831.1 218.1 L830.9 219.2 L829.0 219.3 L829.5 220.6 L827.5 221.6 L825.9 224.1 L827.9 226.7 L827.4 228.0 Z M851.0 209.7 L851.3 211.6 L851.5 213.1 L850.5 215.7 L849.5 212.8 L848.2 214.2 L849.1 216.3 L848.3 217.6 L845.1 216.0 L844.3 214.0 L845.1 212.6 L843.4 211.3 L842.5 212.5 L841.2 212.4 L839.1 213.9 L838.7 213.1 L839.8 210.8 L841.5 210.0 L843.0 209.0 L844.0 210.2 L846.1 209.4 L846.6 208.2 L848.5 208.1 L848.4 206.0 L850.6 207.3 L850.9 208.7 L851.0 209.7 Z M725.6 215.9 L723.2 216.5 L721.9 214.3 L721.4 210.3 L722.6 205.8 L724.6 207.4 L725.8 209.3 L727.2 212.2 L726.8 215.1 L725.6 215.9 Z M330.7 205.0 L328.4 205.3 L327.9 205.1 L328.7 204.3 L328.7 203.2 L330.3 202.9 L330.8 203.0 L330.7 205.0 Z M844.4 204.6 L843.4 205.5 L842.5 207.2 L841.7 208.0 L839.9 206.1 L840.5 205.4 L841.2 204.6 L841.5 202.9 L843.1 202.7 L842.6 204.6 L844.7 201.9 L844.4 204.6 Z M829.2 207.2 L825.5 209.9 L826.8 207.9 L828.9 206.2 L830.5 204.3 L832.0 201.5 L832.5 203.8 L830.6 205.3 L829.2 207.2 Z M838.6 200.1 L840.2 200.9 L842.0 200.9 L841.9 202.1 L840.7 203.3 L838.9 204.1 L838.8 202.8 L839.0 201.4 L838.6 200.1 Z M848.6 199.3 L849.4 202.4 L847.3 201.7 L847.3 202.6 L848.0 204.3 L846.7 205.0 L846.6 203.0 L845.7 202.9 L845.3 201.2 L846.9 201.4 L846.9 200.3 L845.2 198.2 L847.9 198.3 L848.6 199.3 Z M837.6 196.8 L836.8 199.2 L835.6 197.8 L834.2 195.7 L836.6 195.8 L837.6 196.8 Z M837.0 181.7 L838.7 182.5 L839.6 181.8 L839.8 182.5 L839.4 183.7 L840.3 185.6 L839.6 187.9 L838.0 188.9 L837.5 191.1 L838.1 193.3 L839.6 193.6 L840.8 193.3 L844.3 194.8 L844.0 196.3 L844.9 197.0 L844.7 198.3 L842.5 196.9 L841.5 195.5 L840.8 196.5 L839.0 194.8 L836.5 195.2 L835.1 194.6 L835.2 193.5 L836.1 192.8 L835.3 192.1 L834.9 193.1 L833.5 191.5 L833.1 190.3 L833.0 187.7 L834.1 188.6 L834.4 184.2 L835.3 181.7 L837.0 181.7 Z M317.8 182.5 L317.1 183.2 L315.0 183.2 L313.4 183.3 L313.2 182.1 L313.6 181.7 L315.9 181.7 L317.3 181.9 L317.8 182.5 Z M286.4 183.5 L285.5 184.0 L284.0 183.5 L282.4 182.5 L282.7 181.9 L283.9 181.7 L284.5 181.8 L286.4 182.0 L287.9 182.7 L288.3 183.4 L286.4 183.5 Z M298.4 177.9 L300.8 178.4 L301.1 177.9 L303.3 177.9 L305.0 178.6 L305.7 178.6 L306.2 179.5 L307.7 179.5 L307.6 180.3 L308.9 180.4 L310.2 181.4 L309.2 182.6 L307.9 182.0 L306.6 182.1 L305.7 181.9 L305.2 182.4 L304.1 182.6 L303.7 181.9 L302.8 182.3 L301.7 184.2 L301.0 183.8 L300.8 183.0 L299.0 182.5 L297.7 182.7 L296.0 182.5 L294.7 183.0 L293.2 182.2 L293.4 181.3 L296.0 181.7 L298.1 181.9 L299.1 181.3 L297.8 180.1 L297.8 179.0 L296.1 178.6 L296.7 177.8 L298.4 177.9 Z M806.5 181.2 L804.1 182.6 L801.8 181.7 L801.7 179.3 L803.1 178.1 L806.1 177.3 L807.7 177.4 L808.4 178.4 L807.1 179.6 L806.5 181.2 Z M67.9 180.1 L67.5 180.6 L66.8 180.2 L66.9 179.4 L66.5 178.4 L66.6 178.1 L67.1 177.6 L66.9 177.1 L67.1 176.8 L67.3 176.9 L68.3 177.4 L68.8 177.6 L69.3 178.0 L70.0 178.9 L69.9 179.1 L68.8 179.7 L67.9 180.1 Z M66.4 175.8 L65.5 176.0 L65.0 175.4 L64.7 175.2 L64.7 175.0 L65.0 174.8 L66.0 175.0 L66.7 175.5 L66.4 175.8 Z M64.6 174.3 L64.5 174.6 L63.0 174.5 L63.2 174.2 L64.6 174.3 Z M62.1 173.9 L61.9 174.1 L61.7 174.0 L60.8 173.9 L60.4 173.3 L60.3 173.2 L61.0 172.8 L61.3 173.0 L62.1 173.9 Z M57.4 172.1 L57.0 172.4 L56.1 171.8 L56.3 171.6 L56.7 171.4 L57.3 171.4 L57.4 172.1 Z M278.7 169.9 L279.8 170.9 L282.4 170.6 L283.4 171.3 L285.7 173.0 L287.4 174.2 L288.3 174.2 L290.0 174.8 L289.8 175.5 L291.9 175.7 L293.9 176.8 L293.6 177.4 L291.8 177.8 L289.9 177.9 L288.0 177.7 L284.0 178.0 L285.9 176.4 L284.7 175.7 L283.0 175.5 L282.0 174.7 L281.3 173.1 L279.8 173.3 L277.2 172.5 L276.3 171.9 L272.7 171.5 L271.8 171.0 L272.8 170.3 L270.1 170.1 L268.1 171.6 L266.9 171.6 L266.5 172.3 L265.1 172.6 L264.0 172.3 L265.4 171.5 L266.0 170.5 L267.3 169.8 L268.7 169.3 L270.8 169.0 L271.5 168.7 L273.9 168.9 L276.1 169.0 L278.7 169.9 Z M284.6 167.1 L283.9 167.3 L283.2 165.7 L282.2 164.9 L282.8 163.1 L283.6 163.2 L284.6 165.5 L284.6 167.1 Z M836.6 169.8 L835.4 172.1 L833.9 169.8 L833.6 167.7 L835.3 165.0 L837.5 162.9 L838.8 163.7 L838.3 165.4 L836.6 169.8 Z M283.8 159.3 L280.8 159.8 L280.6 158.7 L281.9 158.5 L283.8 158.6 L283.8 159.3 Z M286.1 159.3 L285.6 161.3 L285.1 160.9 L285.2 159.5 L283.9 158.4 L283.9 158.0 L286.1 159.3 Z M874.0 138.3 L874.4 139.3 L872.8 140.9 L871.6 140.1 L870.2 140.7 L869.5 142.3 L867.7 141.5 L867.7 140.2 L869.2 138.6 L870.8 138.9 L872.0 137.7 L874.0 138.3 Z M596.0 134.1 L594.2 135.3 L594.4 135.8 L594.5 136.0 L591.6 137.1 L590.3 136.8 L589.6 135.7 L590.9 135.6 L591.1 135.6 L591.5 134.9 L593.5 134.9 L596.0 134.1 Z M565.8 134.0 L567.4 134.9 L569.5 134.8 L571.6 135.0 L571.5 135.5 L573.0 135.1 L572.7 135.9 L568.7 136.2 L568.7 135.7 L565.3 135.2 L565.8 134.0 Z M543.1 127.0 L542.1 129.2 L542.5 130.0 L541.9 131.5 L539.8 130.4 L538.4 130.1 L534.5 128.7 L534.9 127.3 L538.2 127.5 L541.0 127.2 L543.1 127.0 Z M525.6 118.7 L527.2 120.7 L526.9 124.4 L525.6 124.2 L524.5 125.1 L523.4 124.4 L523.3 121.0 L522.7 119.4 L524.2 119.6 L525.6 118.7 Z M891.6 130.0 L890.6 132.2 L891.0 133.6 L889.6 135.6 L886.0 136.9 L881.2 137.1 L877.2 140.2 L875.3 139.2 L875.2 137.1 L870.4 137.7 L867.1 139.0 L863.9 139.0 L866.7 141.1 L864.8 145.8 L863.0 147.0 L861.7 145.9 L862.4 143.4 L860.6 142.6 L859.5 140.7 L862.1 139.8 L863.6 138.1 L866.3 136.7 L868.4 134.8 L873.9 133.9 L876.9 134.5 L879.8 129.6 L881.6 130.9 L885.7 128.1 L887.3 127.0 L889.0 123.6 L888.6 120.5 L889.7 118.8 L892.7 118.3 L894.2 122.1 L894.1 124.4 L891.6 127.2 L891.6 130.0 Z M526.6 116.1 L525.6 118.3 L524.4 117.7 L523.7 115.8 L524.3 114.8 L526.1 113.7 L526.6 116.1 Z M899.8 110.5 L901.7 111.1 L903.7 109.9 L904.3 113.0 L900.2 113.8 L897.7 116.5 L893.4 114.7 L891.9 117.7 L888.8 117.7 L888.4 115.0 L889.8 112.8 L892.7 112.7 L893.5 108.8 L894.4 106.7 L897.6 109.6 L899.8 110.5 Z M323.2 103.9 L325.2 104.3 L327.7 104.2 L326.4 105.3 L325.3 105.5 L321.8 104.3 L321.1 103.4 L322.2 102.6 L323.2 103.9 Z M328.3 96.8 L327.0 96.9 L323.4 96.0 L320.8 94.7 L321.7 94.5 L325.4 95.2 L328.2 96.3 L328.3 96.8 Z M156.9 98.5 L155.5 98.9 L151.0 97.6 L150.1 96.6 L147.6 95.6 L147.1 94.9 L144.3 94.4 L143.2 92.8 L143.4 92.2 L146.4 92.8 L148.1 93.2 L150.7 93.5 L151.6 94.5 L153.0 95.8 L155.8 96.9 L156.9 98.5 Z M344.1 92.4 L342.2 94.9 L344.0 93.9 L345.9 94.5 L344.9 95.5 L347.4 96.2 L348.7 95.6 L351.5 96.4 L350.6 98.5 L352.5 98.0 L352.9 99.5 L353.8 101.2 L352.6 103.6 L351.3 103.7 L349.5 103.2 L350.1 100.9 L349.3 100.6 L346.1 103.0 L344.5 102.9 L346.4 101.6 L343.7 100.9 L340.8 101.1 L335.4 101.0 L334.9 100.2 L336.7 99.2 L335.5 98.4 L337.8 96.8 L340.7 92.3 L342.4 90.8 L344.8 89.8 L346.1 89.9 L345.6 90.7 L344.1 92.4 Z M131.4 83.1 L131.4 83.1 L131.4 83.1 L131.4 83.1 L134.0 82.9 L133.2 86.1 L135.6 88.3 L134.5 88.3 L132.8 87.0 L131.8 85.7 L130.4 84.9 L129.9 83.7 L130.1 82.8 L131.4 83.1 Z M899.0 92.3 L901.8 97.2 L897.7 96.3 L896.0 100.3 L898.7 103.1 L898.6 105.1 L896.5 103.4 L894.7 105.5 L894.2 103.2 L894.5 100.5 L894.2 97.5 L894.8 95.4 L894.9 91.7 L893.3 89.0 L893.6 85.2 L896.1 83.9 L895.0 82.6 L896.3 82.2 L897.0 84.1 L897.9 86.7 L897.9 89.5 L899.0 92.3 Z M481.1 88.1 L476.2 89.7 L472.3 89.3 L474.5 86.4 L473.1 83.6 L476.9 81.4 L479.0 80.1 L481.3 80.0 L484.3 81.7 L482.8 83.6 L483.2 85.6 L481.1 88.1 Z M535.3 78.8 L533.6 81.0 L530.7 79.5 L530.3 78.3 L534.4 77.4 L535.3 78.8 Z M75.0 74.6 L72.2 75.7 L70.8 74.9 L70.4 73.6 L72.9 72.6 L74.4 72.2 L76.2 72.4 L77.4 73.3 L75.0 74.6 Z M491.7 70.4 L488.7 73.4 L491.5 73.0 L494.6 73.0 L493.8 75.3 L491.3 77.8 L494.2 77.9 L496.9 81.5 L498.8 82.0 L500.5 85.1 L501.3 86.2 L504.7 86.7 L504.3 88.5 L502.9 89.3 L504.0 90.8 L501.5 92.2 L497.8 92.2 L493.1 93.0 L491.8 92.4 L490.0 93.7 L487.4 93.4 L485.4 94.4 L484.0 93.9 L488.0 91.0 L490.5 90.4 L486.2 89.9 L485.4 88.8 L488.3 88.0 L486.7 86.5 L487.3 84.6 L491.4 84.9 L491.8 83.3 L489.9 81.5 L486.5 81.0 L485.9 80.3 L486.9 79.1 L486.0 78.3 L484.5 79.6 L484.3 76.9 L482.9 75.5 L483.9 72.6 L486.1 70.4 L488.3 70.6 L491.7 70.4 Z M40.1 66.8 L38.4 67.3 L36.5 66.8 L34.8 66.0 L37.6 65.5 L39.8 65.8 L40.1 66.8 Z M279.8 60.6 L278.7 62.1 L277.5 61.8 L276.8 61.0 L276.9 60.8 L278.0 60.0 L279.1 60.0 L279.8 60.6 Z M272.5 59.1 L269.3 60.6 L267.3 60.5 L266.7 59.8 L268.7 58.5 L272.6 58.5 L272.5 59.1 Z M23.0 56.1 L24.7 56.6 L26.4 56.3 L28.7 57.1 L31.4 57.4 L31.2 57.7 L29.1 58.3 L27.0 57.7 L25.9 57.2 L23.5 57.4 L22.8 57.1 L23.0 56.1 Z M263.4 50.9 L264.0 52.1 L265.4 51.7 L267.0 52.4 L270.0 53.4 L273.2 54.2 L273.5 55.5 L275.5 55.3 L277.5 56.3 L275.0 57.1 L270.7 56.5 L269.1 55.2 L266.4 56.7 L262.4 58.1 L261.5 56.5 L257.7 56.8 L260.1 55.4 L260.5 53.2 L261.4 50.7 L263.4 50.9 Z M459.7 48.7 L459.1 50.5 L462.2 52.4 L458.6 54.5 L450.6 56.4 L448.2 56.9 L444.5 56.5 L436.8 55.6 L439.5 54.4 L433.5 53.0 L438.4 52.5 L438.3 51.7 L432.4 51.0 L434.3 49.2 L438.5 48.8 L442.8 50.7 L447.1 49.2 L450.6 50.0 L455.1 48.5 L459.7 48.7 Z M289.3 46.8 L286.1 46.9 L285.5 45.5 L286.6 44.0 L289.2 43.6 L291.3 44.4 L291.4 45.6 L291.1 45.9 L289.3 46.8 Z M13.8 48.3 L15.7 49.0 L15.1 47.0 L22.6 47.4 L28.1 50.0 L25.3 51.2 L20.7 51.5 L20.7 54.2 L19.6 54.8 L17.0 54.7 L14.9 53.7 L11.2 52.9 L10.5 51.7 L7.7 51.3 L4.6 51.6 L3.0 50.7 L3.6 49.6 L0.3 50.3 L1.6 51.6 L0.0 52.8 L0.0 41.7 L6.8 43.8 L14.1 46.6 L13.8 48.3 Z M234.3 41.3 L232.6 42.3 L228.8 41.5 L226.6 41.8 L222.8 40.5 L225.2 39.6 L227.2 38.4 L230.1 39.2 L231.8 39.7 L232.6 40.3 L234.3 41.3 Z M1000.0 36.5 L997.0 36.7 L996.5 35.8 L1000.0 34.6 L1000.0 36.5 Z M3.6 36.4 L0.0 36.5 L0.0 34.6 L0.4 34.5 L2.7 34.5 L6.7 35.3 L6.5 35.7 L3.6 36.4 Z M248.5 40.2 L248.5 43.1 L252.2 40.9 L255.5 42.7 L254.7 44.7 L257.4 46.6 L260.3 44.6 L262.3 42.2 L262.4 39.2 L266.4 39.4 L270.5 39.8 L274.2 41.2 L274.4 42.5 L272.3 44.0 L274.3 45.5 L273.9 46.9 L268.5 48.8 L264.6 49.2 L261.8 48.4 L260.9 49.8 L258.2 52.1 L257.4 53.3 L254.2 55.2 L250.2 55.4 L248.0 56.6 L247.9 58.4 L244.6 58.7 L241.2 61.0 L238.2 64.1 L237.1 66.3 L237.0 69.5 L241.1 70.0 L242.3 72.6 L243.6 74.7 L247.5 74.1 L252.7 75.3 L255.4 76.4 L257.4 77.7 L260.9 78.5 L263.9 79.6 L268.4 79.8 L271.5 80.1 L271.0 82.5 L271.9 85.2 L273.9 88.4 L278.0 91.0 L280.2 90.1 L281.7 87.2 L280.2 82.8 L278.3 81.4 L282.7 80.1 L285.8 78.1 L287.4 76.2 L287.2 74.4 L285.3 72.0 L281.9 69.9 L285.2 67.0 L284.0 64.5 L283.0 60.2 L285.0 59.5 L289.7 60.3 L292.6 60.5 L294.9 59.8 L297.5 60.8 L300.9 62.4 L301.7 63.4 L306.7 63.6 L306.6 66.0 L307.5 69.5 L310.1 69.9 L312.1 71.6 L316.1 70.0 L318.8 67.0 L320.6 65.7 L322.8 68.1 L326.4 71.7 L329.5 75.0 L328.3 76.7 L332.0 78.3 L334.5 79.9 L339.0 80.6 L340.7 81.5 L341.8 83.8 L344.0 84.2 L345.1 85.3 L345.3 88.4 L343.3 89.4 L341.3 90.4 L336.7 91.4 L333.2 93.7 L328.5 94.1 L322.6 93.5 L318.4 93.5 L315.6 93.7 L313.2 95.7 L309.7 96.9 L305.7 100.6 L302.5 103.2 L304.8 102.7 L309.3 99.1 L315.1 96.7 L319.3 96.5 L321.7 97.8 L319.1 99.7 L320.0 102.7 L320.9 104.8 L324.5 106.2 L329.1 105.8 L331.9 102.6 L332.1 104.7 L333.9 105.7 L330.4 107.5 L324.3 109.1 L321.5 110.2 L318.4 112.2 L316.3 112.0 L316.2 109.7 L321.0 107.4 L316.6 107.5 L313.5 107.8 L314.0 108.7 L311.0 110.1 L308.2 111.0 L305.2 111.9 L303.6 113.7 L303.3 114.1 L303.3 115.6 L304.2 117.1 L305.3 117.1 L305.0 116.1 L305.9 116.7 L305.7 117.5 L303.8 118.0 L302.4 117.9 L300.4 118.4 L299.2 118.6 L297.6 118.7 L295.2 119.5 L299.3 119.0 L300.2 119.5 L296.3 120.3 L294.5 120.3 L294.6 120.0 L293.7 120.8 L294.5 120.9 L293.9 122.9 L291.9 125.0 L291.7 124.3 L291.1 124.2 L290.2 123.5 L290.8 125.0 L291.4 125.5 L291.5 126.5 L290.6 127.6 L289.1 129.8 L288.8 129.7 L289.7 127.8 L288.2 126.7 L287.9 124.4 L287.4 125.6 L288.0 127.4 L286.2 127.0 L288.1 127.9 L288.2 130.5 L289.0 130.7 L289.3 131.7 L289.6 134.4 L287.9 136.5 L285.0 137.3 L283.2 138.9 L281.8 139.1 L280.4 140.1 L280.0 141.1 L276.9 142.9 L275.4 144.2 L274.1 145.8 L273.6 147.8 L274.1 149.7 L275.1 152.1 L276.3 154.1 L276.3 155.3 L277.6 158.5 L277.5 160.4 L277.4 161.4 L276.7 163.1 L275.9 163.5 L274.5 163.1 L274.1 161.9 L273.0 161.3 L271.6 158.9 L270.3 156.8 L269.8 155.7 L270.4 153.9 L269.6 152.3 L267.5 150.0 L266.4 149.6 L263.6 150.8 L263.1 150.7 L261.7 149.4 L260.0 148.7 L256.9 149.1 L254.4 148.8 L252.3 149.0 L251.1 149.3 L251.6 150.1 L251.6 151.2 L252.2 151.8 L251.6 152.2 L250.6 151.8 L249.6 152.3 L247.6 152.2 L245.5 150.7 L243.1 151.1 L241.0 150.4 L239.3 150.6 L237.0 151.3 L234.4 153.3 L231.7 154.5 L230.2 155.9 L229.5 157.1 L229.5 159.0 L229.6 160.3 L230.2 161.3 L230.2 161.3 L230.2 161.3 L229.1 163.7 L228.6 165.7 L228.4 169.4 L228.1 170.8 L228.6 172.3 L229.5 173.7 L230.0 175.8 L231.9 177.9 L232.5 179.5 L233.6 180.8 L236.6 181.6 L237.7 182.7 L240.1 182.0 L242.3 181.7 L244.3 181.2 L246.1 180.7 L247.9 179.6 L248.5 177.9 L248.7 175.6 L249.2 174.8 L251.1 174.1 L254.0 173.4 L256.5 173.5 L258.2 173.3 L258.9 173.9 L258.8 175.2 L257.3 176.9 L256.6 178.6 L257.1 179.0 L256.7 180.2 L256.0 182.4 L255.3 181.7 L254.7 181.7 L254.7 182.1 L255.3 182.2 L255.2 182.9 L254.8 184.1 L255.0 184.5 L254.7 185.5 L254.9 185.8 L254.6 187.2 L254.0 187.9 L253.5 188.0 L253.0 189.0 L253.9 189.5 L254.1 189.1 L254.9 189.4 L255.2 189.5 L255.8 189.1 L256.6 189.0 L256.9 189.2 L257.3 189.1 L258.6 189.4 L259.9 189.3 L260.8 189.0 L261.1 188.7 L262.0 188.8 L262.7 189.0 L263.4 188.9 L263.9 188.7 L265.2 189.1 L265.6 189.1 L266.5 189.7 L267.3 190.3 L268.3 190.7 L269.0 191.5 L268.8 191.7 L268.7 192.3 L268.9 193.4 L268.3 194.3 L268.0 195.4 L267.9 196.6 L268.1 197.4 L268.1 198.6 L267.7 198.9 L267.4 200.1 L267.6 200.8 L267.1 201.5 L267.2 202.3 L267.6 202.7 L268.3 204.2 L269.4 205.3 L270.7 206.5 L271.7 207.5 L271.6 208.1 L272.8 208.2 L273.0 208.0 L273.8 208.7 L275.1 208.5 L276.3 207.8 L278.0 207.2 L279.0 206.4 L280.5 206.6 L280.4 206.8 L281.9 206.9 L283.2 207.4 L284.1 208.2 L285.1 209.0 L286.6 209.1 L288.6 207.2 L289.8 206.9 L289.8 206.0 L290.3 203.6 L291.9 202.3 L293.7 202.3 L293.9 201.7 L296.1 201.9 L298.3 200.5 L299.3 199.9 L300.7 198.6 L301.7 198.7 L302.4 199.5 L301.9 200.4 L301.8 201.1 L300.1 201.4 L301.1 202.6 L301.0 204.1 L299.8 205.7 L300.8 207.9 L302.0 207.7 L302.7 205.7 L301.8 204.7 L301.7 202.6 L305.1 201.5 L304.7 200.2 L305.7 199.3 L306.7 201.3 L308.7 201.3 L310.5 202.9 L310.6 203.8 L313.1 203.8 L316.0 203.5 L317.6 204.8 L319.7 205.1 L321.3 204.2 L321.3 203.5 L324.8 203.4 L328.1 203.3 L325.7 204.2 L326.7 205.5 L328.9 205.7 L331.0 207.0 L331.5 209.3 L332.9 209.2 L334.0 209.9 L335.8 210.9 L337.5 212.7 L337.6 214.1 L338.7 214.2 L340.2 215.5 L341.3 216.5 L344.6 217.1 L344.9 216.6 L347.1 216.4 L350.1 217.1 L351.1 217.4 L353.1 218.1 L356.0 220.4 L356.5 221.5 L357.5 221.4 L358.1 222.9 L359.7 227.8 L361.2 228.3 L361.3 230.2 L359.2 232.5 L360.0 233.3 L364.9 233.7 L365.0 236.5 L367.2 234.7 L370.6 235.7 L375.3 237.4 L376.6 239.0 L376.2 240.5 L379.4 239.7 L384.8 241.2 L388.9 241.0 L393.1 243.3 L396.6 246.4 L398.7 247.2 L401.1 247.4 L402.1 248.2 L403.1 251.8 L403.5 253.4 L402.4 258.0 L401.0 259.8 L397.1 263.7 L395.3 266.8 L393.3 269.2 L392.6 269.3 L391.8 271.3 L392.0 276.5 L391.2 280.8 L390.9 282.6 L390.0 283.7 L389.6 287.5 L386.7 291.1 L386.3 293.9 L384.0 295.1 L383.4 296.8 L380.3 296.8 L376.0 297.9 L374.0 299.1 L370.9 299.9 L367.6 302.1 L365.3 304.9 L364.9 306.9 L365.3 308.5 L364.8 311.3 L364.2 312.6 L362.3 314.2 L359.2 319.0 L356.7 321.2 L354.8 322.5 L353.6 325.2 L351.7 326.8 L350.5 328.5 L347.4 330.1 L345.3 329.5 L343.8 329.8 L341.3 328.6 L339.4 328.7 L337.7 327.2 L337.5 328.6 L341.0 331.0 L340.7 332.9 L342.4 334.1 L342.3 335.5 L339.6 339.0 L335.5 340.5 L329.9 341.1 L326.8 340.8 L327.4 342.5 L326.9 344.5 L327.4 345.9 L325.7 346.9 L322.9 347.3 L320.2 346.3 L319.1 347.0 L319.5 349.8 L321.4 350.6 L322.9 349.7 L323.7 351.2 L321.2 352.0 L318.9 353.8 L318.5 356.5 L317.9 358.0 L315.3 358.0 L313.1 359.5 L312.3 361.5 L315.0 363.6 L317.7 364.1 L316.7 366.6 L313.4 368.2 L311.6 371.4 L309.1 372.5 L307.9 373.8 L308.8 376.7 L310.7 378.3 L309.5 378.2 L307.1 378.2 L305.7 378.8 L303.2 379.8 L302.8 382.4 L301.6 382.5 L298.5 381.6 L295.3 379.7 L291.8 378.1 L290.9 376.3 L291.7 374.7 L290.3 372.9 L290.0 368.1 L291.2 365.5 L294.1 363.3 L289.9 362.5 L292.5 360.0 L293.5 355.4 L296.6 356.4 L298.0 350.7 L296.1 349.9 L295.3 353.4 L293.5 353.0 L294.4 349.0 L295.3 343.9 L296.6 342.0 L295.8 339.3 L295.6 336.2 L296.8 336.1 L298.5 331.6 L300.4 327.2 L301.6 323.0 L300.9 318.9 L301.8 316.6 L301.4 313.2 L303.0 309.8 L303.5 304.4 L304.4 298.6 L305.3 292.4 L305.1 287.9 L304.5 284.0 L301.7 282.4 L301.5 281.2 L296.0 278.5 L291.0 275.4 L288.9 273.7 L287.7 271.4 L288.2 270.6 L285.8 267.0 L283.1 261.9 L280.5 256.3 L279.3 255.1 L278.4 253.0 L276.3 251.2 L274.3 250.1 L275.2 248.9 L273.9 246.2 L274.7 244.3 L276.9 242.5 L278.4 240.4 L277.8 239.2 L276.8 240.5 L275.1 239.3 L275.7 238.5 L275.2 236.0 L276.2 235.6 L276.7 233.9 L277.7 232.1 L277.5 230.9 L279.0 230.3 L281.0 229.2 L280.6 228.4 L281.6 228.2 L281.5 226.8 L282.1 225.8 L283.5 225.6 L284.7 223.8 L285.8 222.4 L284.7 221.7 L285.3 220.1 L284.6 217.6 L285.2 216.9 L284.8 214.5 L283.7 213.0 L282.7 212.2 L282.1 210.7 L282.8 210.0 L282.1 209.8 L281.6 208.9 L280.2 208.1 L279.0 208.3 L278.4 209.3 L277.3 209.9 L276.7 210.0 L276.4 210.6 L277.8 212.1 L277.0 212.5 L276.6 212.9 L275.3 213.0 L274.8 211.4 L274.5 211.9 L273.6 211.7 L273.0 210.6 L271.9 210.4 L271.1 210.1 L269.9 210.1 L269.9 210.7 L269.5 210.2 L268.0 209.6 L267.5 209.1 L267.8 208.6 L267.7 208.0 L266.9 207.3 L265.8 206.7 L264.9 206.4 L264.7 205.6 L264.0 205.1 L264.1 205.9 L263.6 206.6 L262.9 205.8 L262.1 205.5 L261.7 204.9 L261.7 204.1 L262.1 203.2 L261.3 202.8 L261.9 202.3 L260.9 201.4 L259.7 200.3 L259.0 199.4 L257.9 198.5 L256.5 197.2 L256.8 196.8 L257.2 197.2 L257.5 197.0 L257.0 196.2 L256.1 195.9 L255.8 196.6 L254.2 196.5 L253.2 196.3 L252.1 195.7 L250.5 195.6 L249.7 195.0 L248.3 194.5 L246.6 194.4 L245.3 193.9 L243.8 192.7 L240.7 189.7 L239.2 188.8 L237.0 188.1 L235.4 188.3 L233.2 189.4 L231.8 189.6 L229.8 188.9 L227.7 188.4 L225.1 187.1 L223.1 186.7 L219.9 185.4 L217.6 184.1 L216.9 183.4 L215.3 183.2 L212.5 182.3 L211.3 181.0 L208.4 179.5 L207.0 177.7 L206.3 176.4 L207.2 176.1 L206.9 175.3 L207.6 174.6 L207.6 173.6 L206.7 172.4 L206.4 171.3 L205.5 169.9 L203.0 167.1 L200.2 165.0 L198.9 163.2 L196.5 162.1 L196.0 161.4 L196.4 159.7 L195.0 159.1 L193.4 157.7 L192.7 155.8 L191.2 155.5 L189.6 154.1 L188.3 152.7 L188.1 151.9 L186.6 149.8 L185.7 147.6 L185.7 146.6 L183.7 145.5 L182.8 145.6 L181.2 144.8 L180.7 146.0 L181.2 147.3 L181.5 149.4 L182.4 150.5 L184.5 152.4 L184.9 153.1 L185.4 153.3 L185.7 154.2 L186.2 154.2 L186.8 156.0 L187.6 156.7 L188.2 157.7 L190.0 159.1 L190.9 161.7 L191.7 162.9 L192.5 164.2 L192.6 165.7 L194.0 165.7 L195.1 167.0 L196.1 168.2 L196.0 168.7 L194.8 169.8 L194.4 169.7 L193.6 168.1 L191.8 166.5 L189.8 165.1 L188.4 164.4 L188.5 162.4 L188.1 160.9 L186.7 160.0 L184.8 158.8 L184.5 159.2 L183.8 158.4 L182.0 157.8 L180.4 156.1 L180.6 155.9 L181.7 156.1 L182.8 155.1 L182.9 153.8 L180.7 151.8 L179.1 151.1 L178.1 149.3 L177.1 147.5 L175.8 145.3 L174.6 142.8 L174.2 141.4 L172.4 139.8 L171.1 139.5 L170.8 138.7 L169.2 138.5 L168.2 137.8 L165.6 137.5 L164.9 137.0 L164.6 135.5 L161.9 132.7 L159.6 128.9 L159.7 128.2 L158.5 127.3 L156.3 125.0 L155.9 122.7 L154.4 121.2 L155.1 118.9 L155.0 116.5 L154.1 114.4 L155.2 111.8 L155.8 106.8 L155.3 103.0 L154.5 100.7 L153.6 99.4 L154.0 98.8 L158.0 99.8 L159.5 102.4 L160.2 101.7 L159.7 99.4 L158.8 97.1 L158.4 97.1 L153.0 94.4 L151.0 93.2 L146.0 92.0 L144.5 89.6 L144.9 87.9 L141.3 86.7 L140.8 84.5 L137.5 82.4 L137.4 81.0 L135.9 80.0 L133.4 79.1 L132.6 76.7 L129.1 74.4 L127.6 71.8 L124.9 71.6 L120.5 71.6 L117.2 70.8 L111.5 67.9 L108.8 67.3 L104.0 66.4 L100.1 66.6 L94.7 65.3 L91.3 64.1 L88.3 64.7 L88.8 66.7 L87.3 66.8 L84.1 67.4 L81.6 68.3 L78.6 68.9 L78.2 67.3 L79.4 64.6 L82.4 63.7 L81.6 63.0 L78.1 64.6 L76.2 66.4 L72.2 68.4 L74.2 69.7 L71.6 71.7 L68.6 72.9 L65.8 73.7 L65.1 75.0 L60.8 76.4 L59.9 77.7 L56.7 78.9 L54.8 78.7 L52.2 79.5 L49.3 80.4 L47.0 81.3 L42.3 82.1 L41.8 81.7 L44.9 80.4 L47.6 79.5 L50.5 78.0 L54.0 77.7 L55.4 76.5 L59.2 74.9 L59.8 74.3 L61.9 73.3 L62.4 71.2 L63.8 69.6 L60.6 70.4 L59.7 70.0 L58.2 71.0 L56.4 69.6 L55.6 70.6 L54.6 69.2 L51.8 70.3 L50.1 70.3 L49.8 68.6 L50.3 67.6 L48.6 66.6 L44.9 67.2 L42.6 65.8 L40.7 65.2 L40.7 63.6 L38.6 62.4 L39.6 60.8 L41.9 59.3 L42.9 57.9 L45.1 57.7 L47.0 58.1 L49.3 56.8 L51.3 57.0 L53.4 56.1 L52.9 54.9 L51.3 54.4 L53.4 53.3 L51.7 53.3 L48.7 53.9 L47.9 54.6 L45.7 53.9 L41.8 54.3 L37.7 53.6 L36.5 52.5 L33.0 50.9 L36.9 49.7 L43.1 48.3 L45.4 48.3 L45.0 49.7 L50.9 49.6 L48.6 47.9 L45.2 46.8 L43.2 45.5 L40.6 44.3 L36.8 43.4 L38.3 41.9 L43.2 41.9 L46.8 40.6 L47.4 39.2 L50.3 37.9 L53.0 37.6 L58.2 36.4 L60.8 36.6 L65.1 35.1 L69.3 35.7 L71.3 36.9 L72.5 36.4 L77.2 36.5 L77.0 37.2 L81.3 37.7 L84.1 37.4 L90.0 38.3 L95.3 38.5 L97.4 38.9 L101.1 38.4 L105.4 39.3 L108.4 39.6 L113.6 40.3 L117.9 41.6 L120.8 41.9 L123.3 40.7 L126.6 39.9 L130.8 40.2 L134.9 39.0 L139.5 38.3 L141.4 39.5 L143.4 38.8 L144.1 37.5 L146.0 37.8 L150.7 40.3 L154.4 38.4 L154.8 40.5 L158.2 40.1 L159.2 39.2 L162.6 39.4 L166.8 40.6 L173.3 41.6 L177.1 42.1 L179.9 41.9 L183.6 43.3 L179.7 44.7 L184.7 45.3 L192.2 44.9 L194.6 44.4 L197.6 46.1 L200.6 44.7 L197.7 43.5 L199.5 42.6 L202.9 42.5 L205.1 42.2 L207.4 42.8 L210.2 44.3 L213.3 44.1 L218.2 45.4 L222.5 44.9 L226.5 45.0 L226.2 43.3 L228.7 42.8 L233.0 43.7 L233.0 46.4 L234.8 44.1 L237.0 44.2 L238.2 41.4 L235.3 39.7 L232.0 38.6 L232.2 35.5 L235.5 33.5 L239.2 34.0 L242.0 35.2 L245.8 38.3 L243.3 39.7 L248.5 40.2 Z M182.9 30.2 L181.5 31.5 L187.7 30.6 L191.5 32.0 L194.7 30.6 L197.2 31.5 L199.5 34.3 L200.9 33.1 L198.9 30.3 L201.3 29.9 L204.1 30.3 L207.2 31.4 L209.0 34.1 L209.8 36.1 L214.5 37.5 L219.5 38.8 L219.2 40.0 L214.6 40.2 L216.4 41.3 L215.5 42.3 L210.4 41.9 L205.7 41.1 L202.4 41.3 L197.2 42.2 L189.0 42.7 L185.2 42.9 L183.7 41.6 L179.9 40.8 L177.5 41.2 L174.1 39.0 L175.9 38.7 L180.2 38.2 L184.1 38.3 L187.7 37.8 L182.4 37.2 L176.4 37.4 L172.5 37.3 L171.0 36.3 L177.5 35.2 L173.2 35.3 L168.3 34.5 L170.7 32.4 L172.6 31.3 L180.0 29.6 L182.9 30.2 Z M209.7 29.4 L207.3 31.2 L202.9 29.2 L203.9 28.9 L207.6 28.7 L209.7 29.4 Z M287.9 30.2 L288.2 31.0 L285.2 30.9 L282.2 30.9 L279.2 31.2 L278.4 31.1 L275.3 29.6 L275.5 28.6 L276.8 28.4 L283.2 28.7 L287.9 30.2 Z M259.5 30.1 L261.7 31.8 L264.3 29.6 L271.3 28.4 L276.1 31.3 L275.7 33.1 L281.2 32.3 L283.8 31.2 L290.0 32.6 L293.8 33.9 L294.2 35.2 L299.3 34.5 L302.2 36.3 L308.9 37.4 L311.3 38.5 L314.0 41.1 L308.9 42.4 L315.4 44.2 L319.8 44.8 L323.8 47.4 L328.2 47.6 L327.3 49.5 L322.4 52.7 L319.0 51.5 L314.7 48.9 L311.1 49.2 L310.7 50.8 L313.6 52.4 L317.4 53.7 L318.6 54.4 L320.4 57.2 L319.4 59.2 L315.9 58.4 L308.9 56.2 L312.9 58.6 L315.8 60.3 L316.2 61.2 L308.7 60.1 L302.7 58.5 L299.3 57.2 L300.3 56.4 L296.2 55.0 L292.1 53.6 L292.2 54.4 L284.1 54.9 L281.8 53.9 L283.6 51.9 L288.8 51.8 L294.6 51.5 L293.6 50.5 L294.6 49.1 L298.2 46.4 L297.4 45.2 L296.4 44.2 L292.1 42.9 L286.5 41.9 L288.3 41.2 L285.3 39.5 L282.9 39.3 L280.7 38.4 L279.2 39.2 L274.2 39.6 L264.0 38.9 L258.2 38.1 L253.7 37.7 L251.4 36.7 L254.3 35.5 L250.3 35.5 L249.4 32.6 L251.6 30.2 L254.4 29.0 L261.6 28.3 L259.5 30.1 Z M221.2 28.2 L224.5 28.8 L229.5 28.4 L230.2 29.2 L227.6 30.5 L231.8 31.7 L231.3 34.2 L226.8 35.3 L224.1 35.1 L222.2 34.0 L215.3 31.9 L215.3 31.0 L221.0 31.3 L217.9 29.5 L221.2 28.2 Z M898.9 29.9 L894.7 30.0 L889.0 29.6 L888.5 29.5 L891.1 28.4 L894.6 28.1 L898.6 29.2 L898.9 29.9 Z M241.1 31.2 L238.1 33.2 L235.0 33.1 L233.2 30.7 L233.3 29.3 L234.7 28.1 L237.5 27.4 L243.3 27.5 L248.6 28.1 L244.4 30.6 L241.1 31.2 Z M165.4 35.0 L158.1 36.3 L156.6 35.1 L150.2 33.7 L151.1 32.8 L153.3 30.5 L155.7 28.6 L153.0 26.9 L162.4 26.5 L166.4 27.1 L173.5 27.2 L176.2 28.0 L179.1 29.2 L175.6 29.9 L168.8 31.9 L165.4 33.8 L165.4 35.0 Z M918.7 24.7 L915.5 25.8 L911.0 25.6 L905.9 24.5 L906.6 23.6 L911.7 24.0 L918.7 24.7 Z M240.0 25.0 L238.5 26.1 L234.4 25.9 L231.1 25.2 L232.5 23.9 L236.5 23.2 L239.0 24.1 L240.0 25.0 Z M903.0 23.4 L900.8 25.5 L890.6 25.4 L886.0 26.0 L880.5 24.2 L882.0 22.3 L885.6 21.8 L893.0 21.9 L903.0 23.4 Z M226.4 20.2 L228.5 21.5 L228.6 22.9 L227.3 25.0 L222.8 25.3 L219.8 24.8 L219.8 23.2 L215.3 23.4 L215.1 21.3 L218.1 21.3 L222.3 20.4 L226.2 20.6 L226.4 20.2 Z M199.4 21.6 L200.5 22.6 L203.0 22.2 L205.9 22.3 L206.4 23.6 L204.7 25.0 L195.3 25.4 L188.3 26.6 L184.0 26.7 L183.7 25.7 L189.5 24.5 L176.9 24.9 L173.0 24.4 L176.8 21.6 L179.4 20.9 L187.2 21.8 L192.2 23.4 L197.0 23.7 L193.1 21.0 L195.6 20.0 L198.5 20.3 L199.4 21.6 Z M659.8 36.8 L658.2 37.1 L649.1 36.7 L648.4 35.5 L643.3 34.8 L642.9 33.3 L645.8 32.7 L645.7 31.1 L651.2 28.8 L648.6 28.4 L655.3 26.0 L654.5 24.7 L660.7 23.3 L669.9 21.5 L679.2 21.0 L683.9 20.0 L689.3 19.6 L691.3 20.7 L689.4 21.5 L679.5 22.9 L671.1 24.2 L662.4 26.9 L658.3 29.6 L653.9 32.3 L654.5 34.6 L659.8 36.8 Z M237.0 19.2 L240.1 20.0 L245.5 20.0 L247.9 20.9 L247.3 22.0 L250.5 22.6 L252.3 23.3 L256.0 23.4 L260.1 23.6 L264.5 23.0 L270.1 22.8 L274.6 23.0 L277.6 24.0 L278.2 25.2 L276.5 25.9 L272.4 26.5 L268.8 26.2 L260.8 26.6 L255.1 26.7 L250.7 26.3 L243.3 25.4 L242.3 23.9 L242.0 22.5 L239.2 21.3 L233.4 21.0 L230.2 20.1 L231.3 19.0 L237.0 19.2 Z M177.2 17.6 L176.8 19.8 L174.7 20.7 L172.1 20.9 L166.9 22.0 L162.5 22.5 L158.7 21.9 L158.7 21.9 L163.5 19.8 L169.2 18.0 L173.4 18.0 L177.2 17.6 Z M797.1 19.5 L797.9 20.9 L800.4 20.2 L808.5 20.2 L814.8 21.6 L817.0 22.6 L816.3 24.1 L813.3 24.9 L806.0 26.4 L803.9 27.2 L807.3 27.6 L811.4 28.3 L813.9 27.8 L815.4 29.6 L816.6 28.9 L821.0 28.4 L829.9 28.9 L830.6 30.2 L842.2 30.6 L842.4 28.5 L848.3 29.0 L852.7 29.0 L857.2 30.4 L858.5 32.2 L856.8 33.4 L860.3 35.5 L864.7 36.7 L867.4 33.7 L871.8 35.0 L876.6 34.3 L881.9 35.1 L884.0 34.3 L888.5 34.7 L886.5 32.1 L890.2 30.9 L915.3 32.7 L917.6 34.4 L924.9 36.5 L936.1 36.0 L941.7 36.4 L944.0 37.6 L943.6 39.6 L947.1 40.4 L950.8 39.8 L955.7 39.8 L960.9 40.3 L966.2 40.0 L971.0 42.5 L974.5 41.6 L972.2 39.8 L973.5 38.6 L982.3 39.4 L988.1 39.2 L996.1 40.5 L1000.0 41.7 L1000.0 52.8 L1000.0 52.8 L996.4 54.0 L992.8 53.8 L995.3 55.3 L997.0 57.6 L998.3 58.3 L998.6 59.5 L997.9 60.2 L992.7 59.6 L984.9 61.7 L982.4 62.0 L978.2 64.0 L974.2 65.7 L973.1 66.9 L969.2 65.0 L961.9 67.2 L960.7 66.1 L958.0 67.3 L954.3 67.0 L953.4 68.8 L950.0 71.5 L950.1 72.6 L953.3 73.2 L952.9 77.2 L950.4 77.4 L949.2 79.7 L950.3 80.9 L945.5 82.3 L944.5 85.5 L940.4 86.1 L939.5 88.9 L935.5 91.5 L934.5 89.6 L933.3 85.6 L931.8 79.4 L933.1 75.6 L935.4 73.9 L935.6 72.6 L939.9 72.0 L944.9 68.5 L949.6 65.6 L954.6 63.4 L956.9 59.5 L953.5 59.7 L951.8 62.0 L944.8 65.1 L942.5 61.7 L935.3 62.6 L928.4 67.3 L930.7 69.0 L924.5 69.7 L920.2 70.0 L920.4 68.0 L916.1 67.5 L912.6 68.9 L904.1 68.4 L895.0 69.3 L886.0 74.7 L875.4 81.2 L879.7 81.6 L881.1 83.3 L883.8 83.9 L885.6 82.5 L888.6 82.7 L892.6 85.8 L892.7 88.1 L890.5 90.9 L890.3 94.2 L889.1 98.6 L884.9 102.7 L883.9 104.6 L880.2 107.8 L876.4 111.0 L874.6 112.7 L870.9 114.3 L869.2 114.3 L867.4 113.0 L863.7 115.0 L863.3 115.9 L862.2 115.8 L861.0 116.7 L860.2 117.6 L860.3 119.6 L858.9 120.2 L858.4 120.7 L857.3 121.6 L855.5 122.0 L854.3 122.8 L854.2 124.0 L853.8 124.3 L855.0 124.7 L856.5 125.9 L858.9 129.2 L859.6 131.0 L859.6 134.2 L858.6 135.7 L856.1 136.3 L853.9 137.4 L851.3 137.7 L851.0 136.1 L851.6 134.1 L850.3 131.2 L852.4 130.7 L850.5 128.3 L849.1 127.8 L848.8 128.3 L848.0 128.6 L847.9 128.0 L847.2 127.8 L846.4 127.3 L847.2 126.1 L847.8 125.8 L847.6 125.3 L848.3 123.8 L848.1 123.3 L846.5 123.0 L845.2 122.3 L841.3 123.1 L839.3 124.4 L836.3 125.1 L837.7 123.9 L837.2 122.8 L839.4 120.9 L837.9 119.5 L835.5 120.4 L832.3 122.4 L830.6 124.2 L827.9 124.3 L826.5 125.6 L827.9 127.5 L830.2 127.9 L830.3 129.2 L832.5 130.0 L835.6 128.0 L838.1 129.1 L839.9 129.1 L840.3 130.6 L836.4 131.4 L835.1 132.9 L832.4 134.3 L831.0 136.2 L834.0 137.7 L835.1 140.5 L836.7 143.0 L838.6 145.1 L838.6 147.2 L836.8 148.0 L837.5 149.4 L839.1 150.3 L838.7 152.6 L838.0 154.8 L836.5 155.0 L834.4 158.0 L832.2 161.6 L829.6 165.0 L825.8 167.5 L821.9 169.9 L818.8 170.2 L817.1 171.4 L816.1 170.5 L814.6 171.9 L810.7 173.3 L807.7 173.7 L806.8 176.6 L805.2 176.8 L804.5 174.8 L805.2 173.7 L801.5 172.8 L800.1 173.3 L796.4 175.6 L794.1 178.3 L793.5 180.2 L795.6 183.1 L798.2 186.7 L800.7 188.5 L802.4 190.7 L803.7 195.8 L803.3 200.7 L801.0 202.5 L797.8 204.3 L795.6 206.6 L792.1 209.2 L791.1 207.4 L791.9 205.6 L789.8 204.0 L787.5 203.6 L786.4 202.1 L785.0 199.3 L782.5 198.0 L780.1 198.0 L780.5 195.9 L778.0 195.9 L777.8 198.9 L776.3 203.0 L775.4 205.4 L775.6 207.4 L777.4 207.5 L778.6 210.1 L779.1 212.5 L780.6 214.0 L782.3 214.4 L783.7 215.8 L784.4 216.1 L786.0 217.7 L787.2 219.6 L787.3 221.5 L787.0 222.7 L787.3 223.7 L787.5 225.3 L788.5 226.1 L789.6 228.5 L789.5 229.5 L787.6 229.7 L784.9 227.6 L781.6 225.4 L781.3 224.0 L779.7 222.1 L779.3 219.8 L778.3 218.3 L778.6 216.3 L778.0 215.1 L776.9 214.1 L776.4 212.7 L775.0 211.1 L773.6 209.8 L773.2 211.4 L772.6 209.9 L772.9 208.2 L773.8 205.5 L773.5 203.5 L774.3 201.3 L773.4 199.7 L773.6 196.7 L772.5 195.2 L771.6 191.9 L771.1 188.4 L769.9 186.1 L768.1 187.5 L764.9 189.5 L763.4 189.2 L761.6 188.6 L762.6 185.1 L762.0 182.5 L759.8 179.3 L760.2 178.3 L758.6 178.0 L756.6 175.7 L755.8 174.3 L755.6 172.9 L755.1 171.5 L753.9 169.9 L751.4 169.8 L751.6 170.9 L750.8 172.5 L749.6 171.9 L749.2 172.4 L748.4 172.1 L747.3 171.9 L746.9 172.9 L745.0 172.9 L741.6 173.4 L741.8 175.5 L740.3 177.2 L736.3 179.0 L733.2 182.3 L731.1 184.0 L728.3 185.9 L728.3 187.1 L726.9 187.8 L724.4 188.8 L723.1 189.0 L722.3 191.1 L722.9 194.7 L723.0 197.0 L721.8 199.6 L721.8 204.3 L720.4 204.5 L719.1 206.6 L720.0 207.5 L717.4 208.3 L716.5 210.2 L715.4 211.0 L712.8 208.4 L711.5 204.5 L710.4 201.7 L709.4 200.4 L708.0 197.7 L707.3 194.2 L706.8 192.5 L704.3 188.7 L703.1 183.3 L702.3 179.8 L702.3 176.4 L701.8 173.8 L697.7 175.5 L695.8 175.1 L692.1 171.8 L693.5 170.8 L692.6 169.7 L689.4 167.3 L687.3 166.6 L686.5 164.6 L684.4 162.5 L679.3 163.0 L674.7 163.1 L670.8 163.5 L665.6 162.6 L662.6 162.0 L659.4 161.7 L658.3 158.2 L656.9 157.8 L654.8 158.3 L652.0 159.6 L648.6 158.7 L645.8 156.5 L643.1 155.8 L641.3 153.1 L639.2 149.4 L637.7 149.9 L635.9 149.0 L634.9 150.0 L633.3 149.9 L633.8 151.1 L633.6 151.8 L634.5 153.8 L635.6 156.2 L636.9 156.9 L637.4 157.8 L639.3 159.0 L639.5 160.2 L639.2 161.1 L639.6 162.0 L640.4 162.8 L640.7 163.7 L641.1 164.4 L641.0 162.4 L641.7 160.9 L642.5 160.6 L643.3 161.5 L643.4 163.1 L642.7 164.7 L643.3 165.8 L643.8 165.7 L643.9 166.4 L646.0 166.0 L648.3 166.1 L650.0 166.1 L651.9 164.3 L654.0 162.5 L655.8 160.8 L656.6 159.8 L656.9 160.1 L656.6 161.2 L656.3 161.7 L656.7 163.9 L657.9 165.8 L659.5 166.8 L661.5 167.2 L663.1 167.7 L664.4 169.3 L665.1 170.2 L666.1 170.5 L666.1 171.2 L665.1 172.8 L664.7 173.6 L663.5 174.5 L662.5 176.4 L661.2 176.2 L660.6 176.9 L660.2 178.3 L660.5 180.2 L660.3 180.5 L659.0 180.5 L657.2 181.5 L657.0 182.9 L656.3 183.5 L654.6 183.4 L653.5 184.1 L653.5 185.3 L652.2 186.0 L650.7 185.8 L648.8 186.7 L647.5 186.9 L645.5 187.6 L645.0 188.8 L644.9 189.8 L642.1 191.0 L637.7 192.3 L635.2 194.2 L634.0 194.4 L633.2 194.2 L631.5 195.4 L629.8 195.9 L627.4 196.0 L626.7 196.2 L626.1 196.9 L625.4 197.1 L625.0 197.8 L623.6 197.8 L622.7 198.1 L620.8 198.0 L620.1 196.4 L620.1 194.9 L619.7 194.1 L619.1 192.0 L618.3 190.9 L618.9 190.7 L618.6 189.5 L619.0 188.9 L618.8 187.7 L618.5 186.5 L617.6 185.7 L617.4 184.6 L616.0 183.6 L614.5 181.3 L613.7 179.0 L611.8 177.1 L610.6 176.6 L608.7 174.0 L608.4 172.1 L608.5 170.4 L606.9 167.3 L605.6 166.3 L604.1 165.7 L603.2 164.1 L603.4 163.5 L602.6 162.0 L601.8 161.4 L600.7 159.3 L599.0 157.1 L597.6 155.2 L596.2 155.2 L596.6 153.7 L596.8 152.7 L597.1 151.6 L597.0 151.2 L596.2 152.3 L595.6 154.4 L594.9 155.9 L594.2 156.4 L593.3 155.5 L592.0 154.2 L590.1 150.2 L589.8 150.5 L590.9 153.4 L592.6 156.2 L594.7 160.5 L595.8 162.0 L596.7 163.6 L599.1 166.7 L598.6 167.2 L598.7 169.0 L601.9 171.5 L602.4 172.0 L603.3 174.8 L602.7 175.3 L603.1 178.1 L604.1 181.4 L605.2 182.1 L606.7 183.1 L608.3 186.3 L609.1 188.9 L610.6 190.2 L614.4 192.9 L615.9 194.4 L617.4 196.0 L618.3 197.0 L619.7 197.8 L620.3 198.7 L620.2 199.8 L618.7 200.5 L619.8 201.3 L620.8 201.8 L621.3 202.9 L622.5 204.1 L623.9 204.1 L626.5 203.4 L629.6 203.1 L632.0 202.2 L633.4 202.0 L634.4 201.5 L636.0 201.4 L636.9 201.4 L638.1 200.9 L639.6 200.7 L640.9 199.7 L642.0 199.7 L642.0 200.5 L641.8 202.1 L641.8 203.5 L641.2 204.5 L640.4 207.5 L639.1 210.6 L637.4 214.2 L635.0 218.3 L632.6 221.4 L629.3 225.1 L626.6 227.4 L622.4 230.1 L619.8 232.3 L616.8 235.6 L616.1 237.1 L615.5 237.7 L613.6 238.8 L612.9 240.0 L611.8 240.2 L611.4 242.2 L610.6 243.3 L610.0 245.1 L608.9 246.0 L607.6 249.5 L607.8 251.0 L609.6 252.0 L609.6 252.8 L608.9 254.4 L609.0 255.3 L608.9 256.6 L609.8 258.4 L611.0 261.1 L612.0 261.7 L612.4 262.9 L612.3 265.7 L612.7 268.1 L612.8 272.5 L613.3 273.8 L612.4 275.8 L611.4 277.7 L609.6 279.5 L607.1 280.5 L603.9 281.9 L600.8 284.8 L599.7 285.4 L597.8 287.3 L596.6 288.0 L596.4 289.9 L597.7 292.0 L598.3 293.7 L598.3 294.5 L598.8 294.4 L598.7 297.1 L598.3 298.4 L598.9 298.8 L598.5 300.0 L597.3 301.0 L595.0 301.9 L591.7 303.4 L590.5 304.5 L590.7 305.6 L591.4 305.8 L591.2 307.3 L590.5 309.3 L590.2 311.6 L589.5 312.8 L587.6 314.2 L587.0 314.7 L585.8 316.1 L585.1 317.5 L583.5 319.5 L580.3 322.3 L578.4 324.0 L576.3 325.3 L573.4 326.3 L572.0 326.5 L571.6 327.3 L569.9 326.8 L568.5 327.4 L565.5 326.8 L563.9 327.2 L562.7 327.0 L559.8 328.1 L557.5 328.6 L555.8 329.6 L554.5 329.7 L553.3 328.7 L552.4 328.6 L551.2 327.4 L551.0 327.8 L550.7 327.0 L550.7 325.4 L549.8 323.6 L550.7 323.0 L550.6 320.9 L548.8 318.3 L547.4 316.0 L547.4 316.0 L545.4 312.4 L543.3 310.3 L542.3 308.2 L541.6 305.5 L541.0 303.5 L540.0 299.3 L540.0 295.9 L539.6 294.4 L538.5 293.3 L537.1 291.0 L535.6 287.7 L535.0 285.9 L532.8 283.2 L532.6 281.1 L532.3 279.3 L532.7 276.9 L533.7 274.4 L533.8 273.2 L534.7 270.7 L535.4 269.5 L537.0 267.7 L537.9 266.5 L538.2 264.4 L538.0 262.8 L537.2 261.9 L536.4 260.2 L535.8 258.5 L535.9 257.9 L536.8 256.8 L535.9 254.1 L535.4 252.3 L534.0 250.5 L534.2 250.0 L533.8 249.1 L533.1 247.0 L530.8 244.1 L528.0 241.3 L526.1 239.0 L524.4 236.2 L524.5 235.2 L525.1 234.3 L525.8 232.3 L526.4 230.3 L525.8 229.8 L526.8 226.7 L527.2 224.5 L526.1 222.7 L524.9 222.2 L524.3 221.0 L523.6 220.6 L523.6 219.8 L520.7 220.8 L519.7 220.7 L518.6 221.3 L516.4 221.2 L514.9 219.5 L514.0 217.5 L512.0 215.7 L509.9 215.7 L507.5 215.7 L505.2 216.0 L502.9 216.6 L498.6 218.2 L497.0 219.2 L494.5 220.0 L492.1 219.2 L490.8 219.2 L488.9 218.7 L487.1 218.7 L483.8 219.2 L481.9 220.0 L479.1 221.0 L478.6 221.0 L477.8 221.0 L475.0 219.7 L472.5 217.5 L470.1 216.0 L468.2 214.2 L467.5 214.0 L465.5 212.9 L464.0 211.4 L463.5 210.4 L463.2 208.4 L462.0 206.7 L460.9 205.6 L460.2 205.3 L459.5 204.7 L459.2 203.5 L458.8 202.9 L458.0 202.4 L456.5 201.3 L455.3 201.1 L454.7 200.3 L454.7 199.9 L453.9 199.3 L453.7 198.7 L453.2 196.6 L453.6 195.3 L452.4 193.2 L451.0 192.2 L452.3 191.7 L453.6 189.7 L454.3 188.3 L454.0 186.8 L454.8 185.4 L455.1 182.8 L454.8 180.1 L454.5 178.7 L454.8 177.3 L454.1 176.0 L452.6 174.8 L452.7 173.6 L452.9 172.3 L453.9 171.6 L454.8 170.1 L454.6 169.2 L455.6 167.2 L457.1 165.5 L458.1 165.0 L458.8 163.4 L458.9 161.9 L459.9 160.2 L461.7 159.2 L463.5 156.4 L464.9 155.3 L467.5 155.0 L469.7 153.1 L471.1 152.3 L473.4 150.0 L472.7 146.6 L473.8 144.2 L474.2 142.7 L476.0 140.8 L478.7 139.6 L480.8 138.4 L482.7 135.6 L483.5 133.8 L485.6 133.9 L487.2 135.0 L489.9 134.8 L492.8 135.5 L494.0 135.5 L496.6 134.0 L499.6 133.5 L501.4 132.3 L504.1 131.5 L508.8 131.0 L513.4 130.8 L514.8 131.2 L517.4 130.1 L520.4 130.1 L521.5 130.7 L523.4 130.6 L526.4 129.4 L528.4 129.8 L528.3 131.2 L530.6 130.2 L530.8 130.7 L529.4 132.0 L529.4 133.3 L530.4 134.0 L530.0 136.4 L528.2 137.8 L528.7 139.3 L530.2 139.4 L530.9 140.7 L531.9 141.1 L535.2 142.1 L536.3 141.8 L538.7 142.3 L542.3 143.5 L543.6 146.0 L546.1 146.6 L550.1 147.7 L553.0 149.1 L554.4 148.4 L555.7 147.1 L555.1 145.0 L555.9 143.6 L557.9 142.3 L559.8 141.9 L563.6 142.5 L564.5 143.8 L565.6 143.8 L566.5 144.2 L569.2 144.6 L569.9 145.5 L573.6 145.4 L576.3 146.2 L579.0 147.0 L580.3 147.4 L582.5 146.5 L583.6 145.7 L586.0 145.5 L588.0 145.9 L588.8 147.2 L589.4 146.3 L591.6 147.0 L593.8 147.1 L595.2 146.4 L596.0 145.5 L595.8 145.4 L596.5 144.1 L597.1 142.0 L597.5 141.3 L597.6 141.3 L598.6 139.0 L599.9 137.0 L600.0 136.9 L599.7 134.8 L600.4 133.7 L599.4 132.4 L600.4 131.4 L598.8 131.6 L596.4 131.0 L594.5 132.6 L590.3 132.9 L588.1 131.4 L585.1 131.3 L584.4 132.5 L582.5 132.8 L579.8 131.3 L576.8 131.4 L575.1 128.6 L573.1 127.1 L574.5 124.9 L572.7 123.6 L575.8 120.9 L580.1 120.8 L581.2 118.7 L586.5 119.1 L589.9 117.3 L593.1 116.5 L597.7 116.4 L602.5 118.4 L606.5 119.5 L609.8 119.0 L612.1 119.3 L615.4 117.8 L615.8 116.6 L615.1 114.7 L613.5 113.7 L612.0 113.4 L611.0 112.6 L607.4 110.2 L604.3 109.2 L601.9 107.5 L603.9 107.1 L606.2 104.8 L604.6 103.7 L608.7 102.5 L608.7 101.9 L606.2 102.4 L604.0 102.6 L602.1 103.5 L599.5 103.6 L597.1 104.7 L597.3 106.4 L598.6 107.1 L601.5 106.9 L600.9 107.9 L597.9 108.4 L594.1 110.0 L592.6 109.4 L593.2 108.1 L590.2 107.3 L590.6 106.8 L593.3 105.8 L592.5 105.2 L588.2 104.5 L588.0 103.5 L585.4 103.8 L584.4 105.3 L582.2 107.4 L582.3 108.1 L580.9 108.7 L580.1 108.5 L579.3 111.8 L577.9 112.9 L576.9 114.9 L577.8 116.5 L578.1 117.6 L580.5 118.5 L580.0 119.2 L576.7 119.3 L575.5 120.2 L573.2 121.7 L572.3 120.4 L572.4 119.8 L570.7 119.7 L569.2 119.5 L565.9 120.2 L567.8 121.7 L566.4 122.2 L564.8 122.2 L563.4 120.8 L562.9 121.4 L563.5 123.0 L564.9 124.3 L563.8 124.9 L565.4 126.2 L566.7 127.0 L566.8 128.6 L564.2 127.9 L565.0 129.3 L563.3 129.6 L564.3 132.0 L562.5 132.0 L560.2 130.8 L559.2 128.6 L558.7 126.8 L557.6 125.5 L556.2 123.9 L556.0 123.1 L555.5 122.9 L555.4 122.3 L553.9 121.4 L553.7 120.1 L553.9 118.2 L554.3 117.3 L553.8 116.9 L553.2 116.7 L552.5 115.8 L551.3 115.2 L548.6 114.2 L547.0 113.2 L544.5 112.4 L542.2 110.3 L542.7 110.1 L541.4 108.9 L541.4 108.0 L539.6 107.6 L538.8 108.8 L537.9 107.8 L538.0 106.9 L538.1 106.8 L538.7 106.6 L536.5 106.2 L534.2 107.2 L534.4 108.5 L534.1 109.3 L535.0 110.7 L537.6 112.1 L539.0 114.4 L542.1 116.7 L544.2 116.6 L544.9 117.3 L544.1 117.8 L546.6 118.8 L548.7 119.7 L551.0 121.1 L551.3 121.6 L550.8 122.6 L549.3 121.3 L546.9 120.9 L545.7 122.7 L547.7 123.7 L547.4 125.1 L546.2 125.3 L544.7 127.7 L543.6 127.9 L543.6 127.0 L544.1 125.6 L544.7 125.0 L543.7 123.3 L542.8 122.0 L541.7 121.6 L540.8 120.4 L539.1 119.9 L537.9 118.8 L535.8 118.6 L533.6 117.4 L531.1 115.5 L529.2 114.0 L528.3 111.2 L527.0 110.9 L524.7 110.0 L523.4 110.3 L521.8 111.6 L520.7 111.8 L518.1 113.4 L512.7 112.7 L508.6 113.6 L508.3 115.2 L508.4 116.8 L505.8 118.7 L502.3 119.3 L502.0 120.2 L500.3 121.7 L499.2 124.0 L500.3 125.6 L498.7 126.8 L498.1 128.6 L496.0 129.2 L494.0 131.3 L490.5 131.4 L487.9 131.3 L486.1 132.3 L485.1 133.3 L483.7 133.1 L482.7 132.2 L481.9 130.6 L479.3 130.1 L478.2 130.9 L476.7 130.5 L475.3 130.8 L475.7 128.6 L475.4 126.9 L474.2 126.6 L473.5 125.6 L473.8 123.8 L474.9 122.8 L475.1 121.6 L475.6 120.0 L475.6 118.8 L475.0 117.8 L474.9 116.9 L475.0 114.9 L473.9 113.7 L477.8 111.7 L481.2 112.2 L485.0 112.2 L487.9 112.6 L490.2 112.5 L494.7 112.6 L496.2 110.9 L496.7 105.4 L493.8 102.5 L491.8 101.1 L487.5 100.0 L487.2 98.0 L490.8 97.4 L495.5 98.1 L494.6 95.0 L497.3 96.1 L503.7 94.0 L504.6 91.7 L507.0 91.2 L509.2 90.6 L510.6 89.8 L513.1 85.8 L516.9 84.6 L519.2 84.7 L519.7 84.1 L522.0 83.9 L522.6 84.5 L524.4 83.2 L523.8 82.1 L523.7 80.6 L522.6 79.0 L522.5 76.2 L522.9 75.4 L523.7 74.6 L526.2 74.4 L527.2 73.7 L529.4 72.9 L529.3 74.3 L528.5 75.2 L528.8 76.0 L530.3 76.4 L529.6 77.5 L528.8 77.2 L526.8 79.2 L527.6 80.5 L527.6 81.6 L530.4 82.2 L530.4 83.2 L533.2 82.7 L534.8 81.9 L537.9 83.0 L539.2 83.9 L541.1 83.1 L545.5 81.8 L549.0 80.9 L551.7 81.3 L551.9 82.0 L554.6 82.1 L555.2 80.8 L559.1 79.9 L558.5 77.6 L558.6 75.5 L559.9 73.8 L562.6 72.8 L564.8 74.9 L567.0 74.8 L567.5 72.7 L567.9 71.1 L566.8 71.4 L565.1 70.4 L564.8 68.8 L568.3 68.1 L571.8 67.7 L574.9 68.1 L577.7 68.0 L580.9 66.5 L578.0 65.2 L572.9 65.4 L568.0 66.4 L563.5 67.0 L561.9 65.5 L559.2 64.6 L559.8 61.9 L558.5 59.4 L559.8 57.7 L562.3 56.0 L568.7 53.0 L570.6 52.4 L570.3 51.2 L566.4 49.9 L561.6 50.7 L558.9 52.6 L559.4 54.3 L554.9 56.6 L549.6 59.0 L547.6 62.9 L549.5 64.8 L552.2 66.4 L549.6 69.5 L546.7 70.1 L545.7 74.8 L544.1 77.4 L540.7 77.1 L539.2 79.3 L536.0 79.5 L535.1 76.8 L532.7 73.7 L530.6 69.8 L528.8 68.1 L523.3 71.3 L519.6 71.9 L515.7 70.5 L514.7 67.5 L513.9 61.1 L516.4 59.3 L523.8 57.0 L529.2 54.1 L534.3 50.3 L541.0 44.9 L545.7 42.8 L553.3 39.4 L559.4 38.1 L564.0 38.3 L568.2 36.0 L573.3 36.1 L578.2 35.6 L586.9 37.6 L583.3 38.3 L586.4 40.1 L589.3 39.1 L593.8 40.8 L601.4 41.4 L611.9 44.6 L614.1 45.9 L614.2 47.7 L611.2 49.2 L606.6 49.9 L594.2 47.8 L592.2 48.2 L596.7 50.2 L597.1 54.3 L600.6 55.2 L602.8 55.9 L603.2 54.6 L601.4 53.3 L603.3 52.3 L610.0 54.0 L612.3 53.4 L610.5 51.3 L616.9 48.6 L619.5 48.8 L622.1 49.8 L623.7 47.8 L621.4 46.2 L622.7 44.5 L620.7 42.8 L628.5 43.7 L630.1 45.3 L626.5 45.6 L626.6 47.1 L628.7 48.1 L633.0 47.5 L633.7 45.7 L639.5 44.4 L649.2 42.0 L651.3 42.2 L648.6 43.8 L652.0 44.1 L654.0 43.2 L659.2 43.1 L663.3 42.0 L666.5 43.6 L669.7 41.8 L666.8 40.2 L668.2 39.3 L676.4 40.1 L680.2 41.0 L690.3 44.1 L692.2 42.7 L689.3 41.2 L689.3 40.6 L685.9 40.4 L686.8 39.0 L685.3 36.9 L685.3 36.0 L690.4 33.5 L692.2 31.0 L694.3 30.4 L701.6 31.1 L702.2 32.7 L699.6 34.9 L701.3 35.8 L702.2 37.8 L701.6 41.6 L704.6 43.3 L703.4 45.1 L698.0 49.1 L701.2 49.5 L702.3 48.5 L705.3 47.8 L706.1 46.4 L708.5 45.1 L706.9 43.5 L708.2 41.6 L705.1 41.4 L704.4 39.9 L706.7 37.1 L703.1 34.8 L708.0 33.0 L707.4 31.0 L708.8 30.9 L710.2 32.5 L709.1 35.1 L712.1 35.6 L710.8 33.6 L715.5 32.6 L721.3 32.4 L726.4 34.0 L723.9 31.7 L723.6 28.7 L728.5 28.2 L735.2 28.3 L741.2 27.9 L738.9 26.5 L742.1 24.6 L745.3 24.6 L750.7 23.2 L758.1 22.8 L759.0 22.1 L766.3 21.8 L768.6 22.4 L774.8 21.0 L779.9 21.0 L780.7 19.8 L783.3 18.6 L789.9 17.5 L794.6 18.4 L790.8 19.1 L797.1 19.5 Z M636.4 118.5 L637.8 120.5 L639.1 120.6 L640.0 121.4 L637.7 121.6 L637.2 123.8 L636.7 124.7 L635.7 125.4 L635.8 126.7 L636.7 128.8 L639.3 129.4 L641.2 130.8 L645.2 131.2 L649.5 130.5 L649.8 129.9 L649.3 127.9 L649.7 125.0 L647.5 124.1 L648.2 122.2 L646.4 122.0 L647.0 119.7 L649.6 120.3 L652.0 119.4 L650.0 117.8 L649.2 116.2 L647.0 116.9 L646.7 118.9 L645.8 117.1 L645.7 116.5 L646.4 115.3 L645.8 114.3 L642.6 113.4 L641.4 110.9 L639.8 110.2 L639.7 109.3 L642.4 109.6 L642.5 107.5 L644.9 107.1 L647.3 107.5 L647.8 104.8 L647.3 103.1 L644.6 103.2 L642.2 102.5 L639.0 103.7 L636.4 104.3 L635.1 106.0 L632.4 106.4 L629.7 109.3 L632.2 111.9 L631.9 113.8 L635.0 117.1 L636.4 118.5 Z M239.3 18.0 L238.1 18.1 L232.9 17.9 L232.1 17.1 L237.7 17.1 L239.7 17.7 L239.3 18.0 Z M193.9 17.5 L188.7 18.3 L184.6 17.4 L186.9 16.5 L190.9 16.2 L194.8 16.7 L193.9 17.5 Z M568.7 17.1 L562.5 18.2 L557.6 17.5 L559.5 16.8 L557.8 15.9 L563.6 15.4 L564.7 16.4 L568.7 17.1 Z M195.4 15.0 L192.0 15.5 L187.4 15.5 L187.4 15.1 L190.3 14.3 L191.8 14.4 L195.4 15.0 Z M233.8 16.5 L229.7 17.1 L227.4 16.4 L226.2 15.4 L226.0 14.2 L229.6 14.3 L231.2 14.5 L234.6 15.5 L233.8 16.5 Z M222.1 15.7 L223.1 16.9 L218.6 16.6 L214.0 15.7 L207.8 15.6 L210.5 14.8 L207.2 14.1 L207.0 13.0 L212.4 13.4 L219.9 14.4 L222.1 15.7 Z M791.9 15.8 L776.2 16.9 L781.3 13.2 L783.6 12.9 L785.7 13.1 L792.7 14.7 L791.9 15.8 Z M550.7 11.9 L559.8 14.0 L552.9 15.1 L551.3 17.1 L548.9 17.7 L547.6 20.0 L544.2 20.1 L538.2 18.4 L540.7 17.4 L536.6 16.6 L531.2 14.2 L529.0 12.1 L536.6 11.1 L538.1 12.0 L542.1 12.0 L543.1 11.1 L547.2 11.0 L550.7 11.9 Z M570.7 10.0 L576.1 10.9 L572.0 12.4 L564.0 12.8 L555.8 12.3 L555.3 11.5 L551.3 11.5 L548.2 10.2 L556.8 9.4 L560.9 10.1 L563.7 9.3 L570.7 10.0 Z M642.0 9.6 L638.3 9.9 L635.8 10.2 L635.4 10.6 L632.2 11.1 L629.2 10.4 L630.8 9.5 L624.6 9.5 L630.0 9.0 L634.2 8.9 L634.8 9.7 L636.4 9.0 L639.0 8.5 L643.1 9.2 L642.0 9.6 Z M777.6 14.2 L771.5 14.5 L763.8 13.7 L759.2 12.7 L757.1 10.7 L753.3 10.2 L760.5 8.3 L766.5 7.6 L771.9 9.0 L778.3 11.7 L777.6 14.2 Z M258.3 12.0 L261.6 12.9 L257.8 13.8 L252.7 15.9 L247.8 16.1 L242.0 15.7 L239.0 14.6 L239.1 13.6 L241.3 12.8 L236.2 12.8 L233.1 11.9 L231.4 10.7 L233.3 9.4 L235.2 8.6 L238.1 8.4 L236.8 7.8 L243.3 7.6 L246.9 9.1 L251.5 9.7 L256.1 10.2 L258.3 12.0 Z M309.7 2.5 L317.1 2.7 L323.1 3.1 L328.2 3.8 L328.1 4.5 L321.3 5.7 L314.6 6.3 L312.1 6.9 L318.1 6.9 L311.6 8.6 L307.0 9.4 L302.3 11.7 L296.5 12.1 L294.8 12.7 L286.4 13.0 L290.2 13.3 L288.3 13.8 L290.6 15.2 L287.9 16.1 L283.6 16.9 L282.3 18.0 L278.4 18.8 L278.8 19.5 L283.6 19.4 L283.6 20.0 L276.2 21.7 L269.0 20.9 L260.8 21.4 L256.7 21.0 L251.4 20.9 L251.1 19.6 L256.2 18.9 L254.8 16.9 L256.5 16.7 L264.0 17.9 L260.2 16.1 L255.7 15.6 L257.9 14.5 L262.8 13.9 L263.6 12.9 L259.7 11.8 L258.5 10.4 L266.1 10.5 L268.3 10.8 L272.6 9.8 L266.4 9.5 L256.7 9.7 L251.8 8.7 L249.4 7.6 L246.2 6.8 L245.6 5.8 L249.7 5.3 L253.0 5.2 L258.4 4.8 L262.5 3.7 L265.9 3.9 L268.9 4.7 L271.1 3.2 L274.7 2.7 L279.7 2.4 L288.2 2.3 L289.7 2.6 L297.7 2.1 L303.7 2.3 L309.7 2.5 Z M424.7 1.3 L442.1 3.5 L437.0 4.6 L426.3 4.7 L411.4 5.0 L412.8 5.5 L422.6 5.2 L431.0 6.1 L436.4 5.3 L438.7 6.3 L435.6 7.9 L442.7 6.9 L456.2 5.8 L464.5 6.3 L466.1 7.5 L454.8 9.5 L453.2 10.1 L444.3 10.6 L450.7 10.7 L447.5 12.8 L445.3 14.6 L445.4 17.7 L448.7 19.5 L444.3 19.6 L439.8 20.5 L444.9 21.9 L445.6 24.3 L442.6 24.5 L446.2 26.9 L440.0 27.1 L443.2 28.3 L442.3 29.2 L438.4 29.7 L434.5 29.7 L438.0 31.5 L438.1 32.8 L432.6 31.6 L431.1 32.4 L434.9 33.1 L438.5 34.8 L439.6 37.0 L434.6 37.5 L432.5 36.5 L429.0 34.9 L430.0 36.8 L426.8 38.2 L434.1 38.3 L437.9 38.5 L430.5 40.9 L422.9 43.1 L414.8 44.0 L411.7 44.1 L408.9 45.1 L405.0 48.1 L399.0 50.0 L397.1 50.1 L393.4 50.8 L389.4 51.4 L387.0 53.2 L387.0 55.1 L385.6 56.9 L381.1 59.1 L382.2 61.3 L380.9 63.6 L379.5 66.3 L375.6 66.5 L371.5 64.2 L365.9 64.2 L363.2 62.7 L361.4 60.0 L356.6 56.5 L355.2 54.7 L354.8 52.2 L350.9 49.7 L351.9 47.6 L350.1 46.6 L352.8 43.4 L357.0 42.4 L358.1 41.2 L358.7 39.0 L355.5 40.0 L354.0 40.4 L351.5 40.8 L348.1 39.9 L347.9 38.0 L349.0 36.6 L351.6 36.5 L357.2 37.3 L352.5 35.5 L350.0 34.6 L347.2 34.9 L344.9 34.3 L348.0 31.7 L346.3 30.6 L344.1 28.7 L340.8 25.8 L337.2 24.7 L337.3 23.5 L329.8 21.9 L323.9 21.7 L316.5 21.8 L309.7 22.0 L306.5 21.1 L301.7 19.4 L309.0 18.5 L314.5 18.4 L302.7 17.7 L296.4 16.5 L296.8 15.4 L307.3 14.1 L317.5 12.8 L318.5 11.8 L311.0 10.8 L313.5 9.7 L323.1 7.7 L327.1 7.4 L326.0 6.2 L332.5 5.5 L341.1 5.0 L349.6 5.0 L352.7 5.9 L360.0 4.3 L366.7 5.4 L370.6 5.6 L376.3 6.5 L369.7 5.0 L370.1 3.8 L379.4 2.1 L389.2 2.3 L392.7 1.3 L402.5 1.0 L424.7 1.3 Z" fill="url(#land)" fill-opacity="0.74" stroke="#fff7ec" stroke-opacity="0.48" stroke-width="0.9" filter="url(#softShadow)"/>
</svg>
