<svg xmlns="http://www.w3.org/2000/svg" viewBox="0 0 1200 520" role="img" aria-label="Premier Resort Travel destination locator chart">
  <defs>
    <linearGradient id="water" x1="0" x2="1" y1="0" y2="1">
      <stop offset="0" stop-color="#dcefeb"/>
      <stop offset=".58" stop-color="#e8f0e6"/>
      <stop offset="1" stop-color="#f2eadb"/>
    </linearGradient>
    <radialGradient id="glow" cx=".28" cy=".42" r=".44">
      <stop offset="0" stop-color="#fffaf2" stop-opacity=".7"/>
      <stop offset="1" stop-color="#fffaf2" stop-opacity="0"/>
    </radialGradient>
    <pattern id="microgrid" width="60" height="60" patternUnits="userSpaceOnUse">
      <path d="M60 0H0v60" fill="none" stroke="#cbdad5" stroke-width="1" opacity=".34"/>
    </pattern>
  </defs>

  <rect width="1200" height="520" fill="url(#water)"/>
  <rect width="1200" height="520" fill="url(#glow)"/>
  <rect x="44" y="44" width="1112" height="432" rx="34" fill="none" stroke="#fffaf2" stroke-width="2" opacity=".58"/>
  <rect x="72" y="76" width="1056" height="368" fill="url(#microgrid)" opacity=".72"/>

  <g fill="none" stroke="#bed2cf" stroke-width="2" opacity=".72">
    <path d="M94 150H1106"/>
    <path d="M94 260H1106"/>
    <path d="M94 370H1106"/>
    <path d="M220 88V432"/>
    <path d="M420 88V432"/>
    <path d="M620 88V432"/>
    <path d="M820 88V432"/>
    <path d="M1020 88V432"/>
  </g>

  <g fill="none" stroke="#c69a62" stroke-width="3" stroke-linecap="round" opacity=".42">
    <path d="M234 200C288 190 327 194 375 205c88 21 128-8 185-45 73-48 146-49 238-20 74 24 131 52 220 44"/>
    <path d="M234 200c64 37 107 68 158 114 50 45 103 66 174 57 58-8 93-32 145-32 62 0 117 39 184 72"/>
    <path d="M234 200c-55 25-92 61-120 108"/>
    <path d="M643 136c80 53 119 110 193 147 63 31 124 35 208 7"/>
    <path d="M643 136c41 84 85 136 169 184"/>
    <path d="M843 252c77 41 126 58 210 120"/>
  </g>

</svg>
