<svg xmlns="http://www.w3.org/2000/svg" viewBox="0 0 1200 520" role="img" aria-label="World destination locator background">
  <defs>
    <linearGradient id="water" x1="0" x2="1" y1="0" y2="1">
      <stop offset="0" stop-color="#dcefed"/>
      <stop offset="1" stop-color="#eff1df"/>
    </linearGradient>
  </defs>
  <rect width="1200" height="520" fill="url(#water)"/>
  <g stroke="#c8d8d4" stroke-width="2" opacity=".62">
    <path d="M100 90h1000M100 190h1000M100 290h1000M100 390h1000"/>
    <path d="M180 60v400M360 60v400M540 60v400M720 60v400M900 60v400M1080 60v400"/>
  </g>
  <g fill="none" stroke="#d6c6aa" stroke-width="3" opacity=".72">
    <path d="M115 210c52-54 136-78 213-62 54 12 90 45 104 88 17 53-3 112-53 148-39 28-93 35-139 18-30-11-56-31-88-32-23-1-42 9-61 22"/>
    <path d="M305 414c57-47 130-66 201-50 53 12 91 44 116 91"/>
    <path d="M500 145c50-42 127-58 196-38 53 15 90 49 137 67 52 19 111 10 157-22"/>
    <path d="M710 318c50-37 123-44 185-19 47 19 80 55 125 80 36 20 83 31 128 24"/>
    <path d="M889 177c66-38 149-42 219-11 49 22 82 58 108 103"/>
    <path d="M965 424c55-34 124-42 187-22"/>
  </g>
  <g fill="#f6eddb" stroke="#d9c9ad" stroke-width="3" opacity=".86">
    <path d="M132 168c55-52 145-72 220-43 60 23 89 78 68 131-25 63-114 84-174 54-29-15-52-41-86-39-32 2-53 27-86 21-34-6-57-39-51-70 4-22 28-35 109-54Z"/>
    <path d="M282 366c66-37 154-36 215 7 45 32 60 81 34 114-25 32-86 34-129 10-35-20-48-50-88-47-41 3-65 37-104 28-34-8-52-43-39-72 10-21 44-25 111-40Z"/>
    <path d="M505 137c58-42 145-42 200 3 44 36 45 89 2 121-35 26-90 26-130 6-44-22-64-61-104-55-23 4-35 21-57 15-22-7-31-34-18-55 15-25 61-22 107-35Z"/>
    <path d="M712 250c41-19 98-16 131 12 36 30 30 77-13 102-40 23-96 18-128-14-27-27-25-75 10-100Z"/>
    <path d="M866 161c68-59 184-65 258-16 59 39 70 103 27 146-47 47-142 51-203 17-29-17-50-42-86-41-25 1-41 14-62 5-24-10-29-44-12-68 19-27 52-27 78-43Z"/>
    <path d="M922 364c48-24 113-17 151 18 41 38 28 93-27 115-55 22-129-1-153-48-16-31-4-68 29-85Z"/>
  </g>
</svg>
